<svg width="485" height="549" viewBox="0 0 485 549" fill="none" xmlns="http://www.w3.org/2000/svg">
<g filter="url(#filter0_d_3004_157)">
<rect x="4.94348" y="4.5376" width="476" height="540" rx="10" fill="#1E1E1E"/>
<line opacity="0.5" x1="34" y1="409.75" x2="452.243" y2="409.75" stroke="#B1B1B1" stroke-width="0.5"/>
<path d="M58.5617 366.154C58.5332 365.867 58.4113 365.645 58.1959 365.486C57.9804 365.328 57.6881 365.248 57.3188 365.248C57.0678 365.248 56.8559 365.284 56.6831 365.355C56.5103 365.423 56.3777 365.519 56.2854 365.642C56.1954 365.766 56.1504 365.905 56.1504 366.061C56.1457 366.192 56.1729 366.305 56.2321 366.402C56.2937 366.499 56.3777 366.583 56.4842 366.654C56.5908 366.723 56.7139 366.784 56.8536 366.836C56.9932 366.885 57.1424 366.928 57.301 366.963L57.9544 367.12C58.2716 367.191 58.5628 367.285 58.828 367.404C59.0931 367.522 59.3228 367.668 59.5169 367.841C59.711 368.013 59.8614 368.217 59.9679 368.451C60.0768 368.686 60.1324 368.954 60.1348 369.257C60.1324 369.703 60.0188 370.088 59.7939 370.415C59.5714 370.739 59.2494 370.992 58.828 371.172C58.409 371.349 57.9035 371.438 57.3117 371.438C56.7245 371.438 56.2132 371.348 55.7776 371.168C55.3443 370.988 55.0058 370.722 54.7619 370.369C54.5205 370.014 54.3938 369.575 54.382 369.052H55.8699C55.8865 369.295 55.9563 369.499 56.0794 369.662C56.2049 369.823 56.3718 369.945 56.5801 370.028C56.7908 370.109 57.0287 370.149 57.2939 370.149C57.5543 370.149 57.7804 370.111 57.9722 370.035C58.1663 369.959 58.3166 369.854 58.4232 369.719C58.5297 369.584 58.583 369.429 58.583 369.254C58.583 369.091 58.5344 368.953 58.4374 368.842C58.3427 368.731 58.203 368.636 58.0183 368.558C57.836 368.48 57.6123 368.409 57.3472 368.345L56.5553 368.146C55.9421 367.997 55.458 367.764 55.1028 367.446C54.7477 367.129 54.5714 366.702 54.5737 366.164C54.5714 365.724 54.6885 365.339 54.9253 365.01C55.1644 364.681 55.4923 364.424 55.909 364.24C56.3256 364.055 56.7991 363.963 57.3294 363.963C57.8692 363.963 58.3403 364.055 58.7428 364.24C59.1476 364.424 59.4625 364.681 59.6874 365.01C59.9123 365.339 60.0283 365.721 60.0354 366.154H58.5617Z" fill="white"/>
<path d="M115.314 365.33V364.062H121.287V365.33H119.06V371.335H117.54V365.33H115.314Z" fill="#E9ECF1"/>
<path d="M174.136 368.806H175.443L176.1 369.652L176.746 370.404L177.964 371.931H176.53L175.691 370.902L175.262 370.291L174.136 368.806ZM178.074 367.699C178.074 368.492 177.924 369.166 177.623 369.723C177.325 370.279 176.918 370.704 176.402 370.998C175.888 371.289 175.31 371.434 174.669 371.434C174.022 371.434 173.442 371.288 172.929 370.994C172.415 370.7 172.009 370.275 171.711 369.719C171.412 369.163 171.263 368.489 171.263 367.699C171.263 366.905 171.412 366.231 171.711 365.674C172.009 365.118 172.415 364.694 172.929 364.403C173.442 364.11 174.022 363.963 174.669 363.963C175.31 363.963 175.888 364.11 176.402 364.403C176.918 364.694 177.325 365.118 177.623 365.674C177.924 366.231 178.074 366.905 178.074 367.699ZM176.515 367.699C176.515 367.185 176.438 366.752 176.284 366.399C176.133 366.046 175.919 365.779 175.642 365.596C175.365 365.414 175.04 365.323 174.669 365.323C174.297 365.323 173.973 365.414 173.696 365.596C173.419 365.779 173.203 366.046 173.049 366.399C172.898 366.752 172.822 367.185 172.822 367.699C172.822 368.212 172.898 368.645 173.049 368.998C173.203 369.351 173.419 369.619 173.696 369.801C173.973 369.983 174.297 370.074 174.669 370.074C175.04 370.074 175.365 369.983 175.642 369.801C175.919 369.619 176.133 369.351 176.284 368.998C176.438 368.645 176.515 368.212 176.515 367.699Z" fill="white"/>
<path d="M236.835 368.806H238.142L238.799 369.652L239.445 370.404L240.663 371.931H239.228L238.39 370.902L237.961 370.291L236.835 368.806ZM240.773 367.699C240.773 368.492 240.623 369.166 240.322 369.723C240.024 370.279 239.617 370.704 239.101 370.998C238.587 371.289 238.009 371.434 237.368 371.434C236.721 371.434 236.141 371.288 235.628 370.994C235.114 370.7 234.708 370.275 234.41 369.719C234.111 369.163 233.962 368.489 233.962 367.699C233.962 366.905 234.111 366.231 234.41 365.674C234.708 365.118 235.114 364.694 235.628 364.403C236.141 364.11 236.721 363.963 237.368 363.963C238.009 363.963 238.587 364.11 239.101 364.403C239.617 364.694 240.024 365.118 240.322 365.674C240.623 366.231 240.773 366.905 240.773 367.699ZM239.214 367.699C239.214 367.185 239.137 366.752 238.983 366.399C238.832 366.046 238.618 365.779 238.341 365.596C238.064 365.414 237.739 365.323 237.368 365.323C236.996 365.323 236.672 365.414 236.395 365.596C236.118 365.779 235.902 366.046 235.748 366.399C235.597 366.752 235.521 367.185 235.521 367.699C235.521 368.212 235.597 368.645 235.748 368.998C235.902 369.351 236.118 369.619 236.395 369.801C236.672 369.983 236.996 370.074 237.368 370.074C237.739 370.074 238.064 369.983 238.341 369.801C238.618 369.619 238.832 369.351 238.983 368.998C239.137 368.645 239.214 368.212 239.214 367.699Z" fill="white"/>
<path d="M298.147 366.154C298.119 365.867 297.997 365.645 297.782 365.486C297.566 365.328 297.274 365.248 296.904 365.248C296.653 365.248 296.442 365.284 296.269 365.355C296.096 365.423 295.963 365.519 295.871 365.642C295.781 365.766 295.736 365.905 295.736 366.061C295.731 366.192 295.759 366.305 295.818 366.402C295.879 366.499 295.963 366.583 296.07 366.654C296.176 366.723 296.299 366.784 296.439 366.836C296.579 366.885 296.728 366.928 296.887 366.963L297.54 367.12C297.857 367.191 298.148 367.285 298.414 367.404C298.679 367.522 298.908 367.668 299.103 367.841C299.297 368.013 299.447 368.217 299.554 368.451C299.662 368.686 299.718 368.954 299.72 369.257C299.718 369.703 299.604 370.088 299.38 370.415C299.157 370.739 298.835 370.992 298.414 371.172C297.995 371.349 297.489 371.438 296.897 371.438C296.31 371.438 295.799 371.348 295.363 371.168C294.93 370.988 294.591 370.722 294.348 370.369C294.106 370.014 293.979 369.575 293.968 369.052H295.456C295.472 369.295 295.542 369.499 295.665 369.662C295.79 369.823 295.957 369.945 296.166 370.028C296.376 370.109 296.614 370.149 296.88 370.149C297.14 370.149 297.366 370.111 297.558 370.035C297.752 369.959 297.902 369.854 298.009 369.719C298.115 369.584 298.169 369.429 298.169 369.254C298.169 369.091 298.12 368.953 298.023 368.842C297.928 368.731 297.789 368.636 297.604 368.558C297.422 368.48 297.198 368.409 296.933 368.345L296.141 368.146C295.528 367.997 295.044 367.764 294.688 367.446C294.333 367.129 294.157 366.702 294.159 366.164C294.157 365.724 294.274 365.339 294.511 365.01C294.75 364.681 295.078 364.424 295.495 364.24C295.911 364.055 296.385 363.963 296.915 363.963C297.455 363.963 297.926 364.055 298.328 364.24C298.733 364.424 299.048 364.681 299.273 365.01C299.498 365.339 299.614 365.721 299.621 366.154H298.147Z" fill="white"/>
<path d="M357.397 366.154C357.369 365.867 357.247 365.645 357.031 365.486C356.816 365.328 356.523 365.248 356.154 365.248C355.903 365.248 355.691 365.284 355.519 365.355C355.346 365.423 355.213 365.519 355.121 365.642C355.031 365.766 354.986 365.905 354.986 366.061C354.981 366.192 355.008 366.305 355.068 366.402C355.129 366.499 355.213 366.583 355.32 366.654C355.426 366.723 355.549 366.784 355.689 366.836C355.829 366.885 355.978 366.928 356.136 366.963L356.79 367.12C357.107 367.191 357.398 367.285 357.663 367.404C357.929 367.522 358.158 367.668 358.352 367.841C358.546 368.013 358.697 368.217 358.803 368.451C358.912 368.686 358.968 368.954 358.97 369.257C358.968 369.703 358.854 370.088 358.629 370.415C358.407 370.739 358.085 370.992 357.663 371.172C357.244 371.349 356.739 371.438 356.147 371.438C355.56 371.438 355.049 371.348 354.613 371.168C354.18 370.988 353.841 370.722 353.597 370.369C353.356 370.014 353.229 369.575 353.217 369.052H354.705C354.722 369.295 354.792 369.499 354.915 369.662C355.04 369.823 355.207 369.945 355.416 370.028C355.626 370.109 355.864 370.149 356.129 370.149C356.39 370.149 356.616 370.111 356.808 370.035C357.002 369.959 357.152 369.854 357.259 369.719C357.365 369.584 357.418 369.429 357.418 369.254C357.418 369.091 357.37 368.953 357.273 368.842C357.178 368.731 357.038 368.636 356.854 368.558C356.671 368.48 356.448 368.409 356.183 368.345L355.391 368.146C354.778 367.997 354.293 367.764 353.938 367.446C353.583 367.129 353.407 366.702 353.409 366.164C353.407 365.724 353.524 365.339 353.761 365.01C354 364.681 354.328 364.424 354.744 364.24C355.161 364.055 355.635 363.963 356.165 363.963C356.705 363.963 357.176 364.055 357.578 364.24C357.983 364.424 358.298 364.681 358.523 365.01C358.748 365.339 358.864 365.721 358.871 366.154H357.397Z" fill="white"/>
<path d="M413.541 371.037H410.963V363.764H413.562C414.294 363.764 414.924 363.91 415.452 364.201C415.979 364.49 416.385 364.905 416.67 365.447C416.956 365.989 417.099 366.638 417.099 367.393C417.099 368.151 416.956 368.802 416.67 369.346C416.385 369.891 415.977 370.309 415.444 370.6C414.914 370.891 414.28 371.037 413.541 371.037ZM412.501 369.719H413.477C413.932 369.719 414.314 369.639 414.624 369.478C414.937 369.314 415.171 369.062 415.327 368.721C415.486 368.378 415.565 367.935 415.565 367.393C415.565 366.856 415.486 366.417 415.327 366.076C415.171 365.735 414.938 365.484 414.628 365.323C414.318 365.162 413.935 365.081 413.481 365.081H412.501V369.719Z" fill="white"/>
<rect x="41.0494" y="275.757" width="44.8406" height="69.4619" rx="5" fill="#344BFD"/>
<rect x="100.299" y="211.006" width="44.8406" height="134.213" rx="5" fill="#344BFD"/>
<rect x="159.549" y="296.677" width="44.8406" height="48.5424" rx="5" fill="#344BFD"/>
<rect x="218.799" y="190.063" width="44.8406" height="155.157" rx="5" fill="#344BFD"/>
<rect x="278.049" y="222.96" width="44.8406" height="122.259" rx="5" fill="#344BFD"/>
<rect x="337.299" y="289.465" width="44.8406" height="55.7544" rx="5" fill="#344BFD"/>
<rect x="396.548" y="265.951" width="44.8406" height="79.2686" rx="5" fill="#344BFD"/>
<path d="M192.147 54.8203H187.481C187.396 54.2166 187.222 53.6804 186.959 53.2116C186.696 52.7358 186.359 52.331 185.947 51.9972C185.535 51.6634 185.059 51.4077 184.519 51.2301C183.987 51.0526 183.408 50.9638 182.783 50.9638C181.653 50.9638 180.67 51.2443 179.832 51.8054C178.994 52.3594 178.344 53.169 177.882 54.2344C177.42 55.2926 177.19 56.5781 177.19 58.0909C177.19 59.6463 177.42 60.9531 177.882 62.0114C178.351 63.0696 179.004 63.8686 179.842 64.4084C180.68 64.9482 181.65 65.218 182.751 65.218C183.369 65.218 183.94 65.1364 184.466 64.973C184.999 64.8097 185.471 64.5717 185.883 64.2592C186.295 63.9396 186.636 63.5526 186.906 63.098C187.183 62.6435 187.374 62.125 187.481 61.5426L192.147 61.5639C192.026 62.5653 191.724 63.5312 191.241 64.4616C190.766 65.3849 190.123 66.2124 189.313 66.9439C188.511 67.6683 187.552 68.2436 186.437 68.6697C185.329 69.0888 184.075 69.2983 182.676 69.2983C180.73 69.2983 178.99 68.858 177.456 67.9773C175.929 67.0966 174.722 65.8217 173.834 64.1527C172.953 62.4837 172.513 60.4631 172.513 58.0909C172.513 55.7116 172.96 53.6875 173.855 52.0185C174.75 50.3494 175.964 49.0781 177.499 48.2045C179.033 47.3239 180.759 46.8835 182.676 46.8835C183.94 46.8835 185.112 47.0611 186.192 47.4162C187.278 47.7713 188.241 48.2898 189.079 48.9716C189.917 49.6463 190.599 50.4737 191.124 51.4538C191.657 52.4339 191.998 53.5561 192.147 54.8203ZM202.763 69.3196C201.108 69.3196 199.677 68.968 198.47 68.2649C197.27 67.5547 196.343 66.5675 195.689 65.3033C195.036 64.032 194.709 62.5582 194.709 60.8821C194.709 59.1918 195.036 57.7145 195.689 56.4503C196.343 55.179 197.27 54.1918 198.47 53.4886C199.677 52.7784 201.108 52.4233 202.763 52.4233C204.418 52.4233 205.846 52.7784 207.046 53.4886C208.253 54.1918 209.184 55.179 209.837 56.4503C210.49 57.7145 210.817 59.1918 210.817 60.8821C210.817 62.5582 210.49 64.032 209.837 65.3033C209.184 66.5675 208.253 67.5547 207.046 68.2649C205.846 68.968 204.418 69.3196 202.763 69.3196ZM202.784 65.804C203.537 65.804 204.166 65.5909 204.67 65.1648C205.174 64.7315 205.554 64.142 205.81 63.3963C206.073 62.6506 206.204 61.8018 206.204 60.8501C206.204 59.8984 206.073 59.0497 205.81 58.304C205.554 57.5582 205.174 56.9687 204.67 56.5355C204.166 56.1023 203.537 55.8857 202.784 55.8857C202.025 55.8857 201.385 56.1023 200.867 56.5355C200.355 56.9687 199.968 57.5582 199.706 58.304C199.45 59.0497 199.322 59.8984 199.322 60.8501C199.322 61.8018 199.45 62.6506 199.706 63.3963C199.968 64.142 200.355 64.7315 200.867 65.1648C201.385 65.5909 202.025 65.804 202.784 65.804ZM222.472 52.6364V56.0455H212.618V52.6364H222.472ZM214.855 48.7159H219.393V63.9716C219.393 64.3906 219.457 64.7173 219.585 64.9517C219.713 65.179 219.89 65.3388 220.118 65.4311C220.352 65.5234 220.622 65.5696 220.927 65.5696C221.14 65.5696 221.353 65.5518 221.566 65.5163C221.779 65.4737 221.943 65.4418 222.056 65.4205L222.77 68.7976C222.543 68.8686 222.223 68.9503 221.811 69.0426C221.4 69.142 220.899 69.2024 220.309 69.2237C219.216 69.2663 218.257 69.1207 217.433 68.7869C216.616 68.4531 215.98 67.9347 215.526 67.2315C215.071 66.5284 214.848 65.6406 214.855 64.5682V48.7159ZM230.094 69.3089C229.05 69.3089 228.12 69.1278 227.303 68.7656C226.487 68.3963 225.84 67.853 225.364 67.1357C224.896 66.4112 224.661 65.5092 224.661 64.4297C224.661 63.5206 224.828 62.7571 225.162 62.1392C225.496 61.5213 225.95 61.0241 226.526 60.6477C227.101 60.2713 227.754 59.9872 228.486 59.7955C229.224 59.6037 229.999 59.4688 230.808 59.3906C231.76 59.2912 232.527 59.1989 233.109 59.1136C233.692 59.0213 234.114 58.8864 234.377 58.7088C234.64 58.5312 234.771 58.2685 234.771 57.9205V57.8565C234.771 57.1818 234.558 56.6598 234.132 56.2905C233.713 55.9212 233.116 55.7365 232.342 55.7365C231.526 55.7365 230.876 55.9176 230.393 56.2798C229.91 56.6349 229.59 57.0824 229.434 57.6222L225.237 57.2812C225.45 56.2869 225.869 55.4276 226.494 54.7031C227.119 53.9716 227.925 53.4105 228.912 53.0199C229.906 52.6222 231.057 52.4233 232.364 52.4233C233.273 52.4233 234.143 52.5298 234.974 52.7429C235.812 52.956 236.554 53.2862 237.2 53.7337C237.854 54.1811 238.369 54.7564 238.745 55.4595C239.121 56.1555 239.31 56.9901 239.31 57.9631V69H235.006V66.7308H234.878C234.615 67.2422 234.263 67.6932 233.823 68.0838C233.383 68.4673 232.854 68.7692 232.236 68.9893C231.618 69.2024 230.904 69.3089 230.094 69.3089ZM231.394 66.1768C232.062 66.1768 232.651 66.0455 233.163 65.7827C233.674 65.5128 234.075 65.1506 234.366 64.696C234.658 64.2415 234.803 63.7266 234.803 63.1513V61.4148C234.661 61.5071 234.466 61.5923 234.217 61.6705C233.976 61.7415 233.702 61.8089 233.397 61.8729C233.092 61.9297 232.786 61.983 232.481 62.0327C232.175 62.0753 231.898 62.1143 231.65 62.1499C231.117 62.228 230.652 62.3523 230.254 62.5227C229.857 62.6932 229.548 62.924 229.327 63.2152C229.107 63.4993 228.997 63.8544 228.997 64.2805C228.997 64.8984 229.221 65.3707 229.668 65.6974C230.123 66.017 230.698 66.1768 231.394 66.1768ZM250.224 69.3196C248.548 69.3196 247.106 68.9645 245.899 68.2543C244.699 67.5369 243.775 66.5426 243.129 65.2713C242.49 64 242.17 62.5369 242.17 60.8821C242.17 59.206 242.493 57.7358 243.14 56.4716C243.793 55.2003 244.72 54.2095 245.92 53.4993C247.12 52.782 248.548 52.4233 250.203 52.4233C251.63 52.4233 252.88 52.6825 253.953 53.201C255.025 53.7195 255.874 54.4474 256.499 55.3849C257.124 56.3224 257.468 57.4233 257.532 58.6875H253.25C253.129 57.8707 252.809 57.2138 252.291 56.7166C251.779 56.2124 251.108 55.9602 250.277 55.9602C249.574 55.9602 248.96 56.152 248.434 56.5355C247.916 56.9119 247.511 57.4624 247.22 58.1868C246.929 58.9112 246.783 59.7884 246.783 60.8182C246.783 61.8622 246.925 62.75 247.209 63.4815C247.5 64.2131 247.909 64.7706 248.434 65.1541C248.96 65.5376 249.574 65.7294 250.277 65.7294C250.796 65.7294 251.261 65.6229 251.673 65.4098C252.092 65.1967 252.436 64.8878 252.706 64.483C252.983 64.071 253.164 63.5774 253.25 63.0021H257.532C257.461 64.2521 257.12 65.353 256.51 66.3047C255.906 67.2493 255.071 67.9879 254.006 68.5206C252.941 69.0533 251.68 69.3196 250.224 69.3196ZM249.159 68.9148H251.247L251.076 69.8416C251.808 69.9553 252.404 70.2287 252.866 70.6619C253.335 71.0952 253.573 71.6847 253.58 72.4304C253.587 73.4886 253.097 74.3303 252.11 74.9553C251.123 75.5874 249.738 75.9034 247.955 75.9034L247.912 73.8793C248.807 73.8793 249.507 73.7692 250.011 73.549C250.522 73.3359 250.789 73.0021 250.81 72.5476C250.824 72.1143 250.657 71.7841 250.309 71.5568C249.961 71.3295 249.418 71.1697 248.679 71.0774L249.159 68.9148ZM265.104 69.3089C264.06 69.3089 263.13 69.1278 262.313 68.7656C261.496 68.3963 260.85 67.853 260.374 67.1357C259.905 66.4112 259.671 65.5092 259.671 64.4297C259.671 63.5206 259.838 62.7571 260.172 62.1392C260.506 61.5213 260.96 61.0241 261.535 60.6477C262.111 60.2713 262.764 59.9872 263.496 59.7955C264.234 59.6037 265.008 59.4688 265.818 59.3906C266.77 59.2912 267.537 59.1989 268.119 59.1136C268.702 59.0213 269.124 58.8864 269.387 58.7088C269.65 58.5312 269.781 58.2685 269.781 57.9205V57.8565C269.781 57.1818 269.568 56.6598 269.142 56.2905C268.723 55.9212 268.126 55.7365 267.352 55.7365C266.535 55.7365 265.885 55.9176 265.403 56.2798C264.92 56.6349 264.6 57.0824 264.444 57.6222L260.246 57.2812C260.459 56.2869 260.878 55.4276 261.503 54.7031C262.128 53.9716 262.934 53.4105 263.922 53.0199C264.916 52.6222 266.067 52.4233 267.373 52.4233C268.282 52.4233 269.153 52.5298 269.983 52.7429C270.822 52.956 271.564 53.2862 272.21 53.7337C272.863 54.1811 273.378 54.7564 273.755 55.4595C274.131 56.1555 274.319 56.9901 274.319 57.9631V69H270.015V66.7308H269.888C269.625 67.2422 269.273 67.6932 268.833 68.0838C268.393 68.4673 267.863 68.7692 267.246 68.9893C266.628 69.2024 265.914 69.3089 265.104 69.3089ZM266.404 66.1768C267.072 66.1768 267.661 66.0455 268.172 65.7827C268.684 65.5128 269.085 65.1506 269.376 64.696C269.667 64.2415 269.813 63.7266 269.813 63.1513V61.4148C269.671 61.5071 269.476 61.5923 269.227 61.6705C268.986 61.7415 268.712 61.8089 268.407 61.8729C268.101 61.9297 267.796 61.983 267.491 62.0327C267.185 62.0753 266.908 62.1143 266.66 62.1499C266.127 62.228 265.662 62.3523 265.264 62.5227C264.866 62.6932 264.557 62.924 264.337 63.2152C264.117 63.4993 264.007 63.8544 264.007 64.2805C264.007 64.8984 264.231 65.3707 264.678 65.6974C265.133 66.017 265.708 66.1768 266.404 66.1768ZM264.497 50.6229L261.972 50.5909C261.972 49.2344 262.306 48.1939 262.974 47.4695C263.648 46.745 264.469 46.3793 265.434 46.3722C265.932 46.3722 266.358 46.4538 266.713 46.6172C267.075 46.7734 267.398 46.9581 267.682 47.1712C267.974 47.3842 268.251 47.5724 268.513 47.7358C268.776 47.892 269.06 47.9702 269.366 47.9702C269.778 47.9631 270.09 47.8104 270.303 47.5121C270.523 47.2067 270.633 46.8089 270.633 46.3189L273.116 46.3935C273.101 47.7358 272.76 48.7727 272.093 49.5043C271.425 50.2287 270.612 50.5945 269.653 50.6016C269.121 50.6016 268.673 50.5234 268.311 50.3672C267.956 50.2038 267.643 50.0192 267.373 49.8132C267.104 49.6001 266.841 49.4119 266.585 49.2486C266.329 49.0852 266.042 49.0036 265.722 49.0036C265.353 49.0036 265.055 49.1491 264.827 49.4403C264.607 49.7315 264.497 50.1257 264.497 50.6229ZM285.234 69.3196C283.579 69.3196 282.148 68.968 280.941 68.2649C279.74 67.5547 278.813 66.5675 278.16 65.3033C277.507 64.032 277.18 62.5582 277.18 60.8821C277.18 59.1918 277.507 57.7145 278.16 56.4503C278.813 55.179 279.74 54.1918 280.941 53.4886C282.148 52.7784 283.579 52.4233 285.234 52.4233C286.889 52.4233 288.316 52.7784 289.517 53.4886C290.724 54.1918 291.654 55.179 292.308 56.4503C292.961 57.7145 293.288 59.1918 293.288 60.8821C293.288 62.5582 292.961 64.032 292.308 65.3033C291.654 66.5675 290.724 67.5547 289.517 68.2649C288.316 68.968 286.889 69.3196 285.234 69.3196ZM285.255 65.804C286.008 65.804 286.637 65.5909 287.141 65.1648C287.645 64.7315 288.025 64.142 288.281 63.3963C288.544 62.6506 288.675 61.8018 288.675 60.8501C288.675 59.8984 288.544 59.0497 288.281 58.304C288.025 57.5582 287.645 56.9687 287.141 56.5355C286.637 56.1023 286.008 55.8857 285.255 55.8857C284.495 55.8857 283.856 56.1023 283.338 56.5355C282.826 56.9687 282.439 57.5582 282.176 58.304C281.921 59.0497 281.793 59.8984 281.793 60.8501C281.793 61.8018 281.921 62.6506 282.176 63.3963C282.439 64.142 282.826 64.7315 283.338 65.1648C283.856 65.5909 284.495 65.804 285.255 65.804Z" fill="white"/>
<path d="M149.773 89H148.364C148.28 88.5947 148.134 88.2386 147.926 87.9318C147.722 87.625 147.472 87.3674 147.176 87.1591C146.884 86.947 146.561 86.7879 146.205 86.6818C145.848 86.5758 145.477 86.5227 145.091 86.5227C144.386 86.5227 143.748 86.7008 143.176 87.0568C142.608 87.4129 142.155 87.9375 141.818 88.6307C141.485 89.3239 141.318 90.1742 141.318 91.1818C141.318 92.1894 141.485 93.0398 141.818 93.733C142.155 94.4261 142.608 94.9508 143.176 95.3068C143.748 95.6629 144.386 95.8409 145.091 95.8409C145.477 95.8409 145.848 95.7879 146.205 95.6818C146.561 95.5758 146.884 95.4186 147.176 95.2102C147.472 94.9981 147.722 94.7386 147.926 94.4318C148.134 94.1212 148.28 93.7652 148.364 93.3636H149.773C149.667 93.9583 149.473 94.4905 149.193 94.9602C148.913 95.4299 148.564 95.8295 148.148 96.1591C147.731 96.4848 147.263 96.733 146.744 96.9034C146.229 97.0739 145.678 97.1591 145.091 97.1591C144.098 97.1591 143.216 96.9167 142.443 96.4318C141.67 95.947 141.063 95.2576 140.619 94.3636C140.176 93.4697 139.955 92.4091 139.955 91.1818C139.955 89.9545 140.176 88.8939 140.619 88C141.063 87.1061 141.67 86.4167 142.443 85.9318C143.216 85.447 144.098 85.2045 145.091 85.2045C145.678 85.2045 146.229 85.2898 146.744 85.4602C147.263 85.6307 147.731 85.8807 148.148 86.2102C148.564 86.536 148.913 86.9337 149.193 87.4034C149.473 87.8693 149.667 88.4015 149.773 89ZM155.413 97.1818C154.625 97.1818 153.934 96.9943 153.339 96.6193C152.749 96.2443 152.286 95.7197 151.953 95.0455C151.624 94.3712 151.459 93.5833 151.459 92.6818C151.459 91.7727 151.624 90.9792 151.953 90.3011C152.286 89.6231 152.749 89.0966 153.339 88.7216C153.934 88.3466 154.625 88.1591 155.413 88.1591C156.201 88.1591 156.891 88.3466 157.482 88.7216C158.076 89.0966 158.538 89.6231 158.868 90.3011C159.201 90.9792 159.368 91.7727 159.368 92.6818C159.368 93.5833 159.201 94.3712 158.868 95.0455C158.538 95.7197 158.076 96.2443 157.482 96.6193C156.891 96.9943 156.201 97.1818 155.413 97.1818ZM155.413 95.9773C156.012 95.9773 156.504 95.8239 156.891 95.517C157.277 95.2102 157.563 94.8068 157.749 94.3068C157.934 93.8068 158.027 93.2652 158.027 92.6818C158.027 92.0985 157.934 91.5549 157.749 91.0511C157.563 90.5473 157.277 90.1402 156.891 89.8295C156.504 89.5189 156.012 89.3636 155.413 89.3636C154.815 89.3636 154.322 89.5189 153.936 89.8295C153.55 90.1402 153.264 90.5473 153.078 91.0511C152.893 91.5549 152.8 92.0985 152.8 92.6818C152.8 93.2652 152.893 93.8068 153.078 94.3068C153.264 94.8068 153.55 95.2102 153.936 95.517C154.322 95.8239 154.815 95.9773 155.413 95.9773ZM162.756 91.75V97H161.415V88.2727H162.71V89.6364H162.824C163.028 89.1932 163.339 88.8371 163.756 88.5682C164.172 88.2955 164.71 88.1591 165.369 88.1591C165.96 88.1591 166.477 88.2803 166.92 88.5227C167.364 88.7614 167.708 89.125 167.955 89.6136C168.201 90.0985 168.324 90.7121 168.324 91.4545V97H166.983V91.5455C166.983 90.8598 166.805 90.3258 166.449 89.9432C166.093 89.5568 165.604 89.3636 164.983 89.3636C164.555 89.3636 164.172 89.4564 163.835 89.642C163.502 89.8277 163.239 90.0985 163.045 90.4545C162.852 90.8106 162.756 91.2424 162.756 91.75ZM176.956 90.2273L175.751 90.5682C175.676 90.3674 175.564 90.1723 175.416 89.983C175.272 89.7898 175.075 89.6307 174.825 89.5057C174.575 89.3807 174.255 89.3182 173.865 89.3182C173.331 89.3182 172.886 89.4413 172.53 89.6875C172.178 89.9299 172.001 90.2386 172.001 90.6136C172.001 90.947 172.123 91.2102 172.365 91.4034C172.607 91.5966 172.986 91.7576 173.501 91.8864L174.797 92.2045C175.577 92.3939 176.159 92.6837 176.541 93.0739C176.924 93.4602 177.115 93.9583 177.115 94.5682C177.115 95.0682 176.971 95.5152 176.683 95.9091C176.399 96.303 176.001 96.6136 175.49 96.8409C174.979 97.0682 174.384 97.1818 173.706 97.1818C172.816 97.1818 172.079 96.9886 171.496 96.6023C170.912 96.2159 170.543 95.6515 170.388 94.9091L171.661 94.5909C171.782 95.0606 172.011 95.4129 172.348 95.6477C172.689 95.8826 173.134 96 173.683 96C174.308 96 174.804 95.8674 175.172 95.6023C175.543 95.3333 175.729 95.0114 175.729 94.6364C175.729 94.3333 175.623 94.0795 175.411 93.875C175.198 93.6667 174.873 93.5114 174.433 93.4091L172.979 93.0682C172.179 92.8788 171.592 92.5852 171.217 92.1875C170.846 91.786 170.661 91.2841 170.661 90.6818C170.661 90.1894 170.799 89.7538 171.075 89.375C171.356 88.9962 171.736 88.6989 172.217 88.483C172.702 88.267 173.251 88.1591 173.865 88.1591C174.729 88.1591 175.407 88.3485 175.899 88.7273C176.395 89.1061 176.748 89.6061 176.956 90.2273ZM184.634 93.4318V88.2727H185.974V97H184.634V95.5227H184.543C184.338 95.9659 184.02 96.3428 183.588 96.6534C183.156 96.9602 182.611 97.1136 181.952 97.1136C181.406 97.1136 180.921 96.9943 180.497 96.7557C180.073 96.5133 179.74 96.1496 179.497 95.6648C179.255 95.1761 179.134 94.5606 179.134 93.8182V88.2727H180.474V93.7273C180.474 94.3636 180.652 94.8712 181.009 95.25C181.368 95.6288 181.827 95.8182 182.384 95.8182C182.717 95.8182 183.056 95.733 183.401 95.5625C183.749 95.392 184.041 95.1307 184.276 94.7784C184.514 94.4261 184.634 93.9773 184.634 93.4318ZM189.771 85.3636V97H188.43V85.3636H189.771ZM196.023 88.2727V89.4091H191.5V88.2727H196.023ZM192.818 86.1818H194.159V94.5C194.159 94.8788 194.214 95.1629 194.324 95.3523C194.438 95.5379 194.581 95.6629 194.756 95.7273C194.934 95.7879 195.121 95.8182 195.318 95.8182C195.466 95.8182 195.587 95.8106 195.682 95.7955C195.777 95.7765 195.852 95.7614 195.909 95.75L196.182 96.9545C196.091 96.9886 195.964 97.0227 195.801 97.0568C195.638 97.0947 195.432 97.1136 195.182 97.1136C194.803 97.1136 194.432 97.0322 194.068 96.8693C193.708 96.7064 193.409 96.4583 193.17 96.125C192.936 95.7917 192.818 95.3712 192.818 94.8636V86.1818ZM201.605 97.1818C200.764 97.1818 200.039 96.9962 199.429 96.625C198.823 96.25 198.355 95.7273 198.026 95.0568C197.7 94.3826 197.537 93.5985 197.537 92.7045C197.537 91.8106 197.7 91.0227 198.026 90.3409C198.355 89.6553 198.813 89.1212 199.401 88.7386C199.991 88.3523 200.681 88.1591 201.469 88.1591C201.923 88.1591 202.372 88.2348 202.815 88.3864C203.259 88.5379 203.662 88.7841 204.026 89.125C204.389 89.4621 204.679 89.9091 204.895 90.4659C205.111 91.0227 205.219 91.7083 205.219 92.5227V93.0909H198.491V91.9318H203.855C203.855 91.4394 203.757 91 203.56 90.6136C203.366 90.2273 203.09 89.9223 202.73 89.6989C202.374 89.4754 201.954 89.3636 201.469 89.3636C200.935 89.3636 200.473 89.4962 200.082 89.7614C199.696 90.0227 199.399 90.3636 199.19 90.7841C198.982 91.2045 198.878 91.6553 198.878 92.1364V92.9091C198.878 93.5682 198.991 94.1269 199.219 94.5852C199.45 95.0398 199.77 95.3864 200.179 95.625C200.588 95.8598 201.063 95.9773 201.605 95.9773C201.957 95.9773 202.276 95.928 202.56 95.8295C202.848 95.7273 203.096 95.5758 203.304 95.375C203.512 95.1705 203.673 94.9167 203.787 94.6136L205.082 94.9773C204.946 95.4167 204.717 95.803 204.395 96.1364C204.073 96.4659 203.675 96.7235 203.202 96.9091C202.728 97.0909 202.196 97.1818 201.605 97.1818ZM214.327 97.2045C213.774 97.2045 213.272 97.1004 212.821 96.892C212.37 96.6799 212.012 96.375 211.747 95.9773C211.482 95.5758 211.349 95.0909 211.349 94.5227C211.349 94.0227 211.448 93.6174 211.645 93.3068C211.842 92.9924 212.105 92.7462 212.435 92.5682C212.764 92.3902 213.128 92.2576 213.526 92.1705C213.927 92.0795 214.33 92.0076 214.736 91.9545C215.266 91.8864 215.696 91.8352 216.026 91.8011C216.359 91.7633 216.601 91.7008 216.753 91.6136C216.908 91.5265 216.986 91.375 216.986 91.1591V91.1136C216.986 90.553 216.832 90.1174 216.526 89.8068C216.223 89.4962 215.762 89.3409 215.145 89.3409C214.505 89.3409 214.003 89.4811 213.639 89.7614C213.276 90.0417 213.02 90.3409 212.872 90.6591L211.599 90.2045C211.827 89.6742 212.13 89.2614 212.509 88.9659C212.891 88.6667 213.308 88.4583 213.759 88.3409C214.213 88.2197 214.66 88.1591 215.099 88.1591C215.38 88.1591 215.702 88.1932 216.065 88.2614C216.433 88.3258 216.787 88.4602 217.128 88.6648C217.473 88.8693 217.759 89.178 217.986 89.5909C218.213 90.0038 218.327 90.5568 218.327 91.25V97H216.986V95.8182H216.918C216.827 96.0076 216.675 96.2102 216.463 96.4261C216.251 96.642 215.969 96.8258 215.616 96.9773C215.264 97.1288 214.834 97.2045 214.327 97.2045ZM214.531 96C215.062 96 215.509 95.8958 215.872 95.6875C216.24 95.4792 216.516 95.2102 216.702 94.8807C216.891 94.5511 216.986 94.2045 216.986 93.8409V92.6136C216.929 92.6818 216.804 92.7443 216.611 92.8011C216.421 92.8542 216.202 92.9015 215.952 92.9432C215.705 92.9811 215.465 93.0152 215.23 93.0455C214.999 93.072 214.812 93.0947 214.668 93.1136C214.319 93.1591 213.993 93.233 213.69 93.3352C213.391 93.4337 213.149 93.5833 212.963 93.7841C212.781 93.9811 212.69 94.25 212.69 94.5909C212.69 95.0568 212.863 95.4091 213.207 95.6477C213.556 95.8826 213.997 96 214.531 96ZM228.82 97.1818C228.001 97.1818 227.297 96.9886 226.706 96.6023C226.115 96.2159 225.661 95.6837 225.342 95.0057C225.024 94.3277 224.865 93.553 224.865 92.6818C224.865 91.7955 225.028 91.0133 225.354 90.3352C225.683 89.6534 226.142 89.1212 226.729 88.7386C227.32 88.3523 228.009 88.1591 228.797 88.1591C229.411 88.1591 229.964 88.2727 230.456 88.5C230.948 88.7273 231.352 89.0455 231.666 89.4545C231.981 89.8636 232.176 90.3409 232.251 90.8864H230.911C230.808 90.4886 230.581 90.1364 230.229 89.8295C229.88 89.5189 229.411 89.3636 228.82 89.3636C228.297 89.3636 227.839 89.5 227.445 89.7727C227.054 90.0417 226.75 90.4223 226.53 90.9148C226.314 91.4034 226.206 91.9773 226.206 92.6364C226.206 93.3106 226.312 93.8977 226.524 94.3977C226.74 94.8977 227.043 95.286 227.433 95.5625C227.827 95.839 228.289 95.9773 228.82 95.9773C229.168 95.9773 229.484 95.9167 229.768 95.7955C230.053 95.6742 230.293 95.5 230.49 95.2727C230.687 95.0455 230.827 94.7727 230.911 94.4545H232.251C232.176 94.9697 231.988 95.4337 231.689 95.8466C231.393 96.2557 231.001 96.5814 230.513 96.8239C230.028 97.0625 229.464 97.1818 228.82 97.1818ZM237.757 97.1818C236.969 97.1818 236.278 96.9943 235.683 96.6193C235.092 96.2443 234.63 95.7197 234.297 95.0455C233.967 94.3712 233.803 93.5833 233.803 92.6818C233.803 91.7727 233.967 90.9792 234.297 90.3011C234.63 89.6231 235.092 89.0966 235.683 88.7216C236.278 88.3466 236.969 88.1591 237.757 88.1591C238.545 88.1591 239.234 88.3466 239.825 88.7216C240.42 89.0966 240.882 89.6231 241.212 90.3011C241.545 90.9792 241.712 91.7727 241.712 92.6818C241.712 93.5833 241.545 94.3712 241.212 95.0455C240.882 95.7197 240.42 96.2443 239.825 96.6193C239.234 96.9943 238.545 97.1818 237.757 97.1818ZM237.757 95.9773C238.356 95.9773 238.848 95.8239 239.234 95.517C239.621 95.2102 239.907 94.8068 240.092 94.3068C240.278 93.8068 240.371 93.2652 240.371 92.6818C240.371 92.0985 240.278 91.5549 240.092 91.0511C239.907 90.5473 239.621 90.1402 239.234 89.8295C238.848 89.5189 238.356 89.3636 237.757 89.3636C237.159 89.3636 236.666 89.5189 236.28 89.8295C235.893 90.1402 235.607 90.5473 235.422 91.0511C235.236 91.5549 235.143 92.0985 235.143 92.6818C235.143 93.2652 235.236 93.8068 235.422 94.3068C235.607 94.8068 235.893 95.2102 236.28 95.517C236.666 95.8239 237.159 95.9773 237.757 95.9773ZM247.554 88.2727V89.4091H243.031V88.2727H247.554ZM244.349 86.1818H245.69V94.5C245.69 94.8788 245.745 95.1629 245.855 95.3523C245.969 95.5379 246.113 95.6629 246.287 95.7273C246.465 95.7879 246.652 95.8182 246.849 95.8182C246.997 95.8182 247.118 95.8106 247.213 95.7955C247.308 95.7765 247.384 95.7614 247.44 95.75L247.713 96.9545C247.622 96.9886 247.495 97.0227 247.332 97.0568C247.17 97.0947 246.963 97.1136 246.713 97.1136C246.334 97.1136 245.963 97.0322 245.599 96.8693C245.24 96.7064 244.94 96.4583 244.702 96.125C244.467 95.7917 244.349 95.3712 244.349 94.8636V86.1818ZM252.139 97.2045C251.586 97.2045 251.084 97.1004 250.634 96.892C250.183 96.6799 249.825 96.375 249.56 95.9773C249.295 95.5758 249.162 95.0909 249.162 94.5227C249.162 94.0227 249.26 93.6174 249.457 93.3068C249.654 92.9924 249.918 92.7462 250.247 92.5682C250.577 92.3902 250.94 92.2576 251.338 92.1705C251.74 92.0795 252.143 92.0076 252.548 91.9545C253.079 91.8864 253.509 91.8352 253.838 91.8011C254.171 91.7633 254.414 91.7008 254.565 91.6136C254.721 91.5265 254.798 91.375 254.798 91.1591V91.1136C254.798 90.553 254.645 90.1174 254.338 89.8068C254.035 89.4962 253.575 89.3409 252.957 89.3409C252.317 89.3409 251.815 89.4811 251.452 89.7614C251.088 90.0417 250.832 90.3409 250.685 90.6591L249.412 90.2045C249.639 89.6742 249.942 89.2614 250.321 88.9659C250.704 88.6667 251.12 88.4583 251.571 88.3409C252.026 88.2197 252.473 88.1591 252.912 88.1591C253.192 88.1591 253.514 88.1932 253.878 88.2614C254.245 88.3258 254.599 88.4602 254.94 88.6648C255.285 88.8693 255.571 89.178 255.798 89.5909C256.026 90.0038 256.139 90.5568 256.139 91.25V97H254.798V95.8182H254.73C254.639 96.0076 254.488 96.2102 254.276 96.4261C254.063 96.642 253.781 96.8258 253.429 96.9773C253.077 97.1288 252.647 97.2045 252.139 97.2045ZM252.344 96C252.874 96 253.321 95.8958 253.685 95.6875C254.052 95.4792 254.329 95.2102 254.514 94.8807C254.704 94.5511 254.798 94.2045 254.798 93.8409V92.6136C254.741 92.6818 254.616 92.7443 254.423 92.8011C254.234 92.8542 254.014 92.9015 253.764 92.9432C253.518 92.9811 253.277 93.0152 253.043 93.0455C252.812 93.072 252.624 93.0947 252.48 93.1136C252.132 93.1591 251.806 93.233 251.503 93.3352C251.204 93.4337 250.961 93.5833 250.776 93.7841C250.594 93.9811 250.503 94.25 250.503 94.5909C250.503 95.0568 250.675 95.4091 251.02 95.6477C251.368 95.8826 251.81 96 252.344 96ZM262.132 97.1818C261.314 97.1818 260.609 96.9886 260.018 96.6023C259.428 96.2159 258.973 95.6837 258.655 95.0057C258.337 94.3277 258.178 93.553 258.178 92.6818C258.178 91.7955 258.34 91.0133 258.666 90.3352C258.996 89.6534 259.454 89.1212 260.041 88.7386C260.632 88.3523 261.321 88.1591 262.109 88.1591C262.723 88.1591 263.276 88.2727 263.768 88.5C264.261 88.7273 264.664 89.0455 264.979 89.4545C265.293 89.8636 265.488 90.3409 265.564 90.8864H264.223C264.121 90.4886 263.893 90.1364 263.541 89.8295C263.193 89.5189 262.723 89.3636 262.132 89.3636C261.609 89.3636 261.151 89.5 260.757 89.7727C260.367 90.0417 260.062 90.4223 259.842 90.9148C259.626 91.4034 259.518 91.9773 259.518 92.6364C259.518 93.3106 259.625 93.8977 259.837 94.3977C260.053 94.8977 260.356 95.286 260.746 95.5625C261.14 95.839 261.602 95.9773 262.132 95.9773C262.481 95.9773 262.797 95.9167 263.081 95.7955C263.365 95.6742 263.606 95.5 263.803 95.2727C264 95.0455 264.14 94.7727 264.223 94.4545H265.564C265.488 94.9697 265.301 95.4337 265.001 95.8466C264.706 96.2557 264.314 96.5814 263.825 96.8239C263.34 97.0625 262.776 97.1818 262.132 97.1818ZM261.496 96.9545H262.609L262.518 97.4091C262.814 97.4545 263.085 97.5777 263.331 97.7784C263.577 97.983 263.7 98.3068 263.7 98.75C263.7 99.2386 263.498 99.6364 263.092 99.9432C262.691 100.254 262.098 100.409 261.314 100.409L261.268 99.5227C261.621 99.5227 261.912 99.4659 262.143 99.3523C262.378 99.2424 262.496 99.0568 262.496 98.7955C262.496 98.5341 262.399 98.3561 262.206 98.2614C262.013 98.1667 261.7 98.1023 261.268 98.0682L261.496 96.9545ZM270.092 97.2045C269.539 97.2045 269.037 97.1004 268.587 96.892C268.136 96.6799 267.778 96.375 267.513 95.9773C267.248 95.5758 267.115 95.0909 267.115 94.5227C267.115 94.0227 267.214 93.6174 267.411 93.3068C267.607 92.9924 267.871 92.7462 268.2 92.5682C268.53 92.3902 268.893 92.2576 269.291 92.1705C269.693 92.0795 270.096 92.0076 270.501 91.9545C271.032 91.8864 271.462 91.8352 271.791 91.8011C272.125 91.7633 272.367 91.7008 272.518 91.6136C272.674 91.5265 272.751 91.375 272.751 91.1591V91.1136C272.751 90.553 272.598 90.1174 272.291 89.8068C271.988 89.4962 271.528 89.3409 270.911 89.3409C270.27 89.3409 269.768 89.4811 269.405 89.7614C269.041 90.0417 268.786 90.3409 268.638 90.6591L267.365 90.2045C267.592 89.6742 267.895 89.2614 268.274 88.9659C268.657 88.6667 269.073 88.4583 269.524 88.3409C269.979 88.2197 270.426 88.1591 270.865 88.1591C271.145 88.1591 271.467 88.1932 271.831 88.2614C272.198 88.3258 272.553 88.4602 272.893 88.6648C273.238 88.8693 273.524 89.178 273.751 89.5909C273.979 90.0038 274.092 90.5568 274.092 91.25V97H272.751V95.8182H272.683C272.592 96.0076 272.441 96.2102 272.229 96.4261C272.017 96.642 271.734 96.8258 271.382 96.9773C271.03 97.1288 270.6 97.2045 270.092 97.2045ZM270.297 96C270.827 96 271.274 95.8958 271.638 95.6875C272.005 95.4792 272.282 95.2102 272.467 94.8807C272.657 94.5511 272.751 94.2045 272.751 93.8409V92.6136C272.695 92.6818 272.57 92.7443 272.376 92.8011C272.187 92.8542 271.967 92.9015 271.717 92.9432C271.471 92.9811 271.231 93.0152 270.996 93.0455C270.765 93.072 270.577 93.0947 270.433 93.1136C270.085 93.1591 269.759 93.233 269.456 93.3352C269.157 93.4337 268.914 93.5833 268.729 93.7841C268.547 93.9811 268.456 94.25 268.456 94.5909C268.456 95.0568 268.628 95.4091 268.973 95.6477C269.321 95.8826 269.763 96 270.297 96ZM269.206 87.2273L268.161 87.1818C268.161 86.6023 268.325 86.1288 268.655 85.7614C268.988 85.3902 269.399 85.2045 269.888 85.2045C270.104 85.2045 270.295 85.2424 270.462 85.3182C270.628 85.3902 270.787 85.4735 270.939 85.5682C271.09 85.6629 271.246 85.7481 271.405 85.8239C271.568 85.8958 271.751 85.9318 271.956 85.9318C272.172 85.9318 272.354 85.8485 272.501 85.6818C272.653 85.5114 272.729 85.3068 272.729 85.0682L273.751 85.1591C273.751 85.75 273.585 86.2197 273.251 86.5682C272.922 86.9167 272.513 87.0909 272.024 87.0909C271.763 87.0909 271.547 87.0549 271.376 86.983C271.206 86.9072 271.054 86.822 270.922 86.7273C270.789 86.6326 270.649 86.5492 270.501 86.4773C270.354 86.4015 270.172 86.3636 269.956 86.3636C269.74 86.3636 269.56 86.4489 269.416 86.6193C269.276 86.786 269.206 86.9886 269.206 87.2273ZM280.085 97.1818C279.297 97.1818 278.606 96.9943 278.011 96.6193C277.42 96.2443 276.958 95.7197 276.625 95.0455C276.295 94.3712 276.131 93.5833 276.131 92.6818C276.131 91.7727 276.295 90.9792 276.625 90.3011C276.958 89.6231 277.42 89.0966 278.011 88.7216C278.606 88.3466 279.297 88.1591 280.085 88.1591C280.873 88.1591 281.563 88.3466 282.153 88.7216C282.748 89.0966 283.21 89.6231 283.54 90.3011C283.873 90.9792 284.04 91.7727 284.04 92.6818C284.04 93.5833 283.873 94.3712 283.54 95.0455C283.21 95.7197 282.748 96.2443 282.153 96.6193C281.563 96.9943 280.873 97.1818 280.085 97.1818ZM280.085 95.9773C280.684 95.9773 281.176 95.8239 281.562 95.517C281.949 95.2102 282.235 94.8068 282.42 94.3068C282.606 93.8068 282.699 93.2652 282.699 92.6818C282.699 92.0985 282.606 91.5549 282.42 91.0511C282.235 90.5473 281.949 90.1402 281.562 89.8295C281.176 89.5189 280.684 89.3636 280.085 89.3636C279.487 89.3636 278.994 89.5189 278.608 89.8295C278.222 90.1402 277.936 90.5473 277.75 91.0511C277.564 91.5549 277.472 92.0985 277.472 92.6818C277.472 93.2652 277.564 93.8068 277.75 94.3068C277.936 94.8068 278.222 95.2102 278.608 95.517C278.994 95.8239 279.487 95.9773 280.085 95.9773ZM293.155 97.2045C292.602 97.2045 292.1 97.1004 291.649 96.892C291.198 96.6799 290.84 96.375 290.575 95.9773C290.31 95.5758 290.178 95.0909 290.178 94.5227C290.178 94.0227 290.276 93.6174 290.473 93.3068C290.67 92.9924 290.933 92.7462 291.263 92.5682C291.592 92.3902 291.956 92.2576 292.354 92.1705C292.755 92.0795 293.159 92.0076 293.564 91.9545C294.094 91.8864 294.524 91.8352 294.854 91.8011C295.187 91.7633 295.429 91.7008 295.581 91.6136C295.736 91.5265 295.814 91.375 295.814 91.1591V91.1136C295.814 90.553 295.661 90.1174 295.354 89.8068C295.051 89.4962 294.59 89.3409 293.973 89.3409C293.333 89.3409 292.831 89.4811 292.467 89.7614C292.104 90.0417 291.848 90.3409 291.7 90.6591L290.428 90.2045C290.655 89.6742 290.958 89.2614 291.337 88.9659C291.719 88.6667 292.136 88.4583 292.587 88.3409C293.041 88.2197 293.488 88.1591 293.928 88.1591C294.208 88.1591 294.53 88.1932 294.893 88.2614C295.261 88.3258 295.615 88.4602 295.956 88.6648C296.301 88.8693 296.587 89.178 296.814 89.5909C297.041 90.0038 297.155 90.5568 297.155 91.25V97H295.814V95.8182H295.746C295.655 96.0076 295.503 96.2102 295.291 96.4261C295.079 96.642 294.797 96.8258 294.445 96.9773C294.092 97.1288 293.662 97.2045 293.155 97.2045ZM293.359 96C293.89 96 294.337 95.8958 294.7 95.6875C295.068 95.4792 295.344 95.2102 295.53 94.8807C295.719 94.5511 295.814 94.2045 295.814 93.8409V92.6136C295.757 92.6818 295.632 92.7443 295.439 92.8011C295.25 92.8542 295.03 92.9015 294.78 92.9432C294.534 92.9811 294.293 93.0152 294.058 93.0455C293.827 93.072 293.64 93.0947 293.496 93.1136C293.147 93.1591 292.821 93.233 292.518 93.3352C292.219 93.4337 291.977 93.5833 291.791 93.7841C291.609 93.9811 291.518 94.25 291.518 94.5909C291.518 95.0568 291.691 95.4091 292.036 95.6477C292.384 95.8826 292.825 96 293.359 96ZM303.398 88.2727V89.4091H298.875V88.2727H303.398ZM300.193 86.1818H301.534V94.5C301.534 94.8788 301.589 95.1629 301.699 95.3523C301.813 95.5379 301.956 95.6629 302.131 95.7273C302.309 95.7879 302.496 95.8182 302.693 95.8182C302.841 95.8182 302.962 95.8106 303.057 95.7955C303.152 95.7765 303.227 95.7614 303.284 95.75L303.557 96.9545C303.466 96.9886 303.339 97.0227 303.176 97.0568C303.013 97.0947 302.807 97.1136 302.557 97.1136C302.178 97.1136 301.807 97.0322 301.443 96.8693C301.083 96.7064 300.784 96.4583 300.545 96.125C300.311 95.7917 300.193 95.3712 300.193 94.8636V86.1818ZM310.915 93.4318V88.2727H312.256V97H310.915V95.5227H310.824C310.619 95.9659 310.301 96.3428 309.869 96.6534C309.438 96.9602 308.892 97.1136 308.233 97.1136C307.688 97.1136 307.203 96.9943 306.778 96.7557C306.354 96.5133 306.021 96.1496 305.778 95.6648C305.536 95.1761 305.415 94.5606 305.415 93.8182V88.2727H306.756V93.7273C306.756 94.3636 306.934 94.8712 307.29 95.25C307.65 95.6288 308.108 95.8182 308.665 95.8182C308.998 95.8182 309.337 95.733 309.682 95.5625C310.03 95.392 310.322 95.1307 310.557 94.7784C310.795 94.4261 310.915 93.9773 310.915 93.4318ZM317.28 97.2045C316.727 97.2045 316.225 97.1004 315.774 96.892C315.323 96.6799 314.965 96.375 314.7 95.9773C314.435 95.5758 314.303 95.0909 314.303 94.5227C314.303 94.0227 314.401 93.6174 314.598 93.3068C314.795 92.9924 315.058 92.7462 315.388 92.5682C315.717 92.3902 316.081 92.2576 316.479 92.1705C316.88 92.0795 317.284 92.0076 317.689 91.9545C318.219 91.8864 318.649 91.8352 318.979 91.8011C319.312 91.7633 319.554 91.7008 319.706 91.6136C319.861 91.5265 319.939 91.375 319.939 91.1591V91.1136C319.939 90.553 319.786 90.1174 319.479 89.8068C319.176 89.4962 318.715 89.3409 318.098 89.3409C317.458 89.3409 316.956 89.4811 316.592 89.7614C316.229 90.0417 315.973 90.3409 315.825 90.6591L314.553 90.2045C314.78 89.6742 315.083 89.2614 315.462 88.9659C315.844 88.6667 316.261 88.4583 316.712 88.3409C317.166 88.2197 317.613 88.1591 318.053 88.1591C318.333 88.1591 318.655 88.1932 319.018 88.2614C319.386 88.3258 319.74 88.4602 320.081 88.6648C320.426 88.8693 320.712 89.178 320.939 89.5909C321.166 90.0038 321.28 90.5568 321.28 91.25V97H319.939V95.8182H319.871C319.78 96.0076 319.628 96.2102 319.416 96.4261C319.204 96.642 318.922 96.8258 318.57 96.9773C318.217 97.1288 317.787 97.2045 317.28 97.2045ZM317.484 96C318.015 96 318.462 95.8958 318.825 95.6875C319.193 95.4792 319.469 95.2102 319.655 94.8807C319.844 94.5511 319.939 94.2045 319.939 93.8409V92.6136C319.882 92.6818 319.757 92.7443 319.564 92.8011C319.375 92.8542 319.155 92.9015 318.905 92.9432C318.659 92.9811 318.418 93.0152 318.183 93.0455C317.952 93.072 317.765 93.0947 317.621 93.1136C317.272 93.1591 316.946 93.233 316.643 93.3352C316.344 93.4337 316.102 93.5833 315.916 93.7841C315.734 93.9811 315.643 94.25 315.643 94.5909C315.643 95.0568 315.816 95.4091 316.161 95.6477C316.509 95.8826 316.95 96 317.484 96ZM325.068 85.3636V97H323.727V85.3636H325.068Z" fill="white"/>
<path d="M39.4982 463.352H35.2603V450.261H39.6325C40.9151 450.261 42.0167 450.523 42.9372 451.047C43.8576 451.567 44.5629 452.315 45.0529 453.291C45.5473 454.262 45.7944 455.428 45.7944 456.787C45.7944 458.151 45.5451 459.322 45.0465 460.303C44.5522 461.283 43.8363 462.037 42.8988 462.565C41.9613 463.09 40.8278 463.352 39.4982 463.352ZM37.2355 461.626H39.3896C40.3867 461.626 41.2156 461.438 41.8761 461.063C42.5366 460.684 43.0309 460.136 43.359 459.42C43.6872 458.7 43.8512 457.822 43.8512 456.787C43.8512 455.76 43.6872 454.889 43.359 454.173C43.0352 453.457 42.5515 452.913 41.908 452.543C41.2646 452.172 40.4656 451.987 39.511 451.987H37.2355V461.626ZM52.2328 463.55C51.3123 463.55 50.5091 463.339 49.823 462.917C49.1369 462.495 48.6042 461.905 48.225 461.146C47.8457 460.388 47.6561 459.501 47.6561 458.487C47.6561 457.469 47.8457 456.578 48.225 455.815C48.6042 455.053 49.1369 454.46 49.823 454.038C50.5091 453.617 51.3123 453.406 52.2328 453.406C53.1533 453.406 53.9565 453.617 54.6426 454.038C55.3287 454.46 55.8613 455.053 56.2406 455.815C56.6199 456.578 56.8095 457.469 56.8095 458.487C56.8095 459.501 56.6199 460.388 56.2406 461.146C55.8613 461.905 55.3287 462.495 54.6426 462.917C53.9565 463.339 53.1533 463.55 52.2328 463.55ZM52.2392 461.945C52.8358 461.945 53.3301 461.788 53.7221 461.472C54.1142 461.157 54.404 460.737 54.5915 460.213C54.7832 459.689 54.8791 459.112 54.8791 458.481C54.8791 457.854 54.7832 457.279 54.5915 456.755C54.404 456.227 54.1142 455.803 53.7221 455.483C53.3301 455.163 52.8358 455.004 52.2392 455.004C51.6383 455.004 51.1398 455.163 50.7435 455.483C50.3514 455.803 50.0595 456.227 49.8677 456.755C49.6802 457.279 49.5865 457.854 49.5865 458.481C49.5865 459.112 49.6802 459.689 49.8677 460.213C50.0595 460.737 50.3514 461.157 50.7435 461.472C51.1398 461.788 51.6383 461.945 52.2392 461.945ZM60.8541 450.261V463.352H58.9428V450.261H60.8541ZM66.2825 463.569C65.6604 463.569 65.0979 463.454 64.595 463.224C64.0922 462.989 63.6937 462.651 63.3997 462.207C63.1099 461.764 62.965 461.221 62.965 460.577C62.965 460.023 63.0716 459.568 63.2846 459.21C63.4977 458.852 63.7854 458.568 64.1476 458.359C64.5098 458.151 64.9146 457.993 65.3621 457.886C65.8095 457.78 66.2655 457.699 66.73 457.643C67.318 457.575 67.7953 457.52 68.1618 457.477C68.5283 457.43 68.7946 457.356 68.9608 457.254C69.127 457.151 69.2101 456.985 69.2101 456.755V456.71C69.2101 456.152 69.0524 455.719 68.7371 455.413C68.426 455.106 67.9615 454.952 67.3436 454.952C66.7001 454.952 66.193 455.095 65.8223 455.381C65.4558 455.662 65.2023 455.975 65.0616 456.32L63.2655 455.911C63.4785 455.315 63.7896 454.833 64.1987 454.467C64.6121 454.096 65.0872 453.827 65.6241 453.661C66.1611 453.491 66.7257 453.406 67.318 453.406C67.7101 453.406 68.1256 453.452 68.5645 453.546C69.0077 453.636 69.421 453.802 69.8045 454.045C70.1923 454.288 70.5098 454.635 70.7569 455.087C71.0041 455.534 71.1277 456.116 71.1277 456.832V463.352H69.2612V462.009H69.1845C69.0609 462.256 68.8756 462.499 68.6284 462.738C68.3812 462.977 68.0638 463.175 67.676 463.332C67.2882 463.49 66.8237 463.569 66.2825 463.569ZM66.698 462.035C67.2264 462.035 67.6781 461.93 68.0531 461.722C68.4324 461.513 68.72 461.24 68.916 460.903C69.1163 460.563 69.2165 460.198 69.2165 459.81V458.545C69.1483 458.613 69.0162 458.677 68.8202 458.737C68.6284 458.792 68.4089 458.841 68.1618 458.884C67.9146 458.922 67.6738 458.958 67.4395 458.992C67.2051 459.022 67.0091 459.048 66.8514 459.069C66.4807 459.116 66.1419 459.195 65.8351 459.305C65.5325 459.416 65.2896 459.576 65.1064 459.785C64.9274 459.989 64.8379 460.262 64.8379 460.603C64.8379 461.076 65.0126 461.434 65.3621 461.677C65.7115 461.916 66.1568 462.035 66.698 462.035ZM73.6733 463.352V453.533H75.5206V455.093H75.6229C75.8019 454.565 76.1172 454.149 76.5689 453.847C77.0249 453.54 77.5405 453.386 78.1158 453.386C78.2351 453.386 78.3757 453.391 78.5377 453.399C78.7039 453.408 78.8338 453.418 78.9276 453.431V455.259C78.8509 455.238 78.7145 455.215 78.5185 455.189C78.3225 455.159 78.1264 455.144 77.9304 455.144C77.4787 455.144 77.076 455.24 76.7223 455.432C76.3729 455.619 76.0959 455.881 75.8914 456.218C75.6868 456.55 75.5845 456.93 75.5845 457.356V463.352H73.6733ZM81.943 461.562L81.8471 462.259C81.7832 462.77 81.6746 463.303 81.5212 463.857C81.372 464.415 81.2165 464.933 81.0545 465.41C80.8969 465.887 80.7669 466.266 80.6646 466.548H79.3095C79.3649 466.283 79.4416 465.925 79.5396 465.474C79.6376 465.026 79.7335 464.526 79.8273 463.972C79.921 463.418 79.9913 462.853 80.0382 462.278L80.1021 461.562H81.943ZM89.3482 463.352V450.261H97.5556V451.961H91.3234V455.95H97.1273V457.643H91.3234V461.651H97.6323V463.352H89.3482ZM106.26 459.28V453.533H108.178V463.352H106.298V461.651H106.196C105.97 462.175 105.608 462.612 105.109 462.962C104.615 463.307 103.999 463.479 103.262 463.479C102.631 463.479 102.073 463.341 101.587 463.064C101.106 462.783 100.727 462.367 100.45 461.818C100.177 461.268 100.041 460.588 100.041 459.778V453.533H101.952V459.548C101.952 460.217 102.137 460.75 102.508 461.146C102.879 461.543 103.36 461.741 103.952 461.741C104.31 461.741 104.666 461.651 105.02 461.472C105.378 461.293 105.674 461.023 105.908 460.661C106.147 460.298 106.264 459.838 106.26 459.28ZM110.746 463.352V453.533H112.593V455.093H112.695C112.874 454.565 113.189 454.149 113.641 453.847C114.097 453.54 114.613 453.386 115.188 453.386C115.307 453.386 115.448 453.391 115.61 453.399C115.776 453.408 115.906 453.418 116 453.431V455.259C115.923 455.238 115.787 455.215 115.591 455.189C115.395 455.159 115.199 455.144 115.003 455.144C114.551 455.144 114.148 455.24 113.795 455.432C113.445 455.619 113.168 455.881 112.964 456.218C112.759 456.55 112.657 456.93 112.657 457.356V463.352H110.746ZM121.438 463.55C120.517 463.55 119.714 463.339 119.028 462.917C118.342 462.495 117.809 461.905 117.43 461.146C117.051 460.388 116.861 459.501 116.861 458.487C116.861 457.469 117.051 456.578 117.43 455.815C117.809 455.053 118.342 454.46 119.028 454.038C119.714 453.617 120.517 453.406 121.438 453.406C122.358 453.406 123.162 453.617 123.848 454.038C124.534 454.46 125.066 455.053 125.446 455.815C125.825 456.578 126.015 457.469 126.015 458.487C126.015 459.501 125.825 460.388 125.446 461.146C125.066 461.905 124.534 462.495 123.848 462.917C123.162 463.339 122.358 463.55 121.438 463.55ZM121.444 461.945C122.041 461.945 122.535 461.788 122.927 461.472C123.319 461.157 123.609 460.737 123.797 460.213C123.988 459.689 124.084 459.112 124.084 458.481C124.084 457.854 123.988 457.279 123.797 456.755C123.609 456.227 123.319 455.803 122.927 455.483C122.535 455.163 122.041 455.004 121.444 455.004C120.843 455.004 120.345 455.163 119.949 455.483C119.556 455.803 119.265 456.227 119.073 456.755C118.885 457.279 118.792 457.854 118.792 458.481C118.792 459.112 118.885 459.689 119.073 460.213C119.265 460.737 119.556 461.157 119.949 461.472C120.345 461.788 120.843 461.945 121.444 461.945ZM137.143 463.55C136.176 463.55 135.343 463.343 134.644 462.93C133.949 462.512 133.412 461.926 133.033 461.172C132.658 460.413 132.471 459.525 132.471 458.506C132.471 457.501 132.658 456.614 133.033 455.847C133.412 455.08 133.941 454.482 134.618 454.051C135.3 453.621 136.097 453.406 137.009 453.406C137.563 453.406 138.1 453.497 138.62 453.68C139.14 453.864 139.606 454.151 140.02 454.543C140.433 454.935 140.759 455.445 140.998 456.071C141.236 456.693 141.355 457.45 141.355 458.34V459.018H133.551V457.586H139.483C139.483 457.083 139.38 456.638 139.176 456.25C138.971 455.858 138.684 455.549 138.313 455.323C137.946 455.097 137.516 454.984 137.022 454.984C136.485 454.984 136.016 455.117 135.615 455.381C135.219 455.641 134.912 455.982 134.695 456.403C134.482 456.821 134.375 457.275 134.375 457.765V458.884C134.375 459.54 134.49 460.098 134.721 460.558C134.955 461.018 135.281 461.37 135.699 461.613C136.116 461.852 136.604 461.971 137.162 461.971C137.525 461.971 137.855 461.92 138.153 461.818C138.451 461.711 138.709 461.553 138.927 461.344C139.144 461.136 139.31 460.878 139.425 460.571L141.234 460.897C141.089 461.43 140.829 461.896 140.454 462.297C140.083 462.693 139.617 463.002 139.054 463.224C138.496 463.441 137.859 463.55 137.143 463.55ZM148.393 463.352V450.261H153.059C154.078 450.261 154.922 450.446 155.591 450.817C156.26 451.188 156.76 451.695 157.093 452.338C157.425 452.977 157.591 453.697 157.591 454.499C157.591 455.304 157.423 456.028 157.086 456.672C156.754 457.311 156.251 457.818 155.578 458.193C154.909 458.564 154.067 458.749 153.053 458.749H149.844V457.075H152.874C153.517 457.075 154.039 456.964 154.44 456.742C154.841 456.516 155.135 456.21 155.322 455.822C155.51 455.434 155.603 454.993 155.603 454.499C155.603 454.004 155.51 453.565 155.322 453.182C155.135 452.798 154.838 452.498 154.434 452.281C154.033 452.063 153.505 451.955 152.848 451.955H150.368V463.352H148.393ZM163.862 463.55C162.895 463.55 162.061 463.343 161.363 462.93C160.668 462.512 160.131 461.926 159.752 461.172C159.377 460.413 159.189 459.525 159.189 458.506C159.189 457.501 159.377 456.614 159.752 455.847C160.131 455.08 160.659 454.482 161.337 454.051C162.019 453.621 162.816 453.406 163.728 453.406C164.282 453.406 164.819 453.497 165.338 453.68C165.858 453.864 166.325 454.151 166.738 454.543C167.152 454.935 167.478 455.445 167.716 456.071C167.955 456.693 168.074 457.45 168.074 458.34V459.018H160.27V457.586H166.201C166.201 457.083 166.099 456.638 165.895 456.25C165.69 455.858 165.402 455.549 165.032 455.323C164.665 455.097 164.235 454.984 163.74 454.984C163.204 454.984 162.735 455.117 162.334 455.381C161.938 455.641 161.631 455.982 161.414 456.403C161.201 456.821 161.094 457.275 161.094 457.765V458.884C161.094 459.54 161.209 460.098 161.439 460.558C161.674 461.018 162 461.37 162.417 461.613C162.835 461.852 163.323 461.971 163.881 461.971C164.243 461.971 164.574 461.92 164.872 461.818C165.17 461.711 165.428 461.553 165.645 461.344C165.863 461.136 166.029 460.878 166.144 460.571L167.953 460.897C167.808 461.43 167.548 461.896 167.173 462.297C166.802 462.693 166.336 463.002 165.773 463.224C165.215 463.441 164.578 463.55 163.862 463.55ZM177.552 455.93L175.82 456.237C175.747 456.016 175.632 455.805 175.475 455.604C175.321 455.404 175.112 455.24 174.848 455.112C174.584 454.984 174.254 454.92 173.857 454.92C173.316 454.92 172.865 455.042 172.502 455.285C172.14 455.523 171.959 455.832 171.959 456.212C171.959 456.54 172.08 456.804 172.323 457.004C172.566 457.205 172.958 457.369 173.499 457.496L175.059 457.854C175.963 458.063 176.636 458.385 177.079 458.82C177.522 459.254 177.744 459.819 177.744 460.514C177.744 461.102 177.573 461.626 177.232 462.086C176.896 462.542 176.425 462.9 175.82 463.16C175.219 463.42 174.522 463.55 173.73 463.55C172.63 463.55 171.733 463.315 171.039 462.847C170.344 462.374 169.918 461.702 169.76 460.833L171.607 460.552C171.722 461.033 171.959 461.398 172.317 461.645C172.675 461.888 173.142 462.009 173.717 462.009C174.343 462.009 174.844 461.879 175.219 461.619C175.594 461.355 175.781 461.033 175.781 460.654C175.781 460.347 175.666 460.09 175.436 459.881C175.21 459.672 174.863 459.514 174.394 459.408L172.732 459.043C171.816 458.835 171.139 458.502 170.7 458.046C170.265 457.59 170.048 457.013 170.048 456.314C170.048 455.734 170.21 455.227 170.534 454.793C170.857 454.358 171.305 454.019 171.876 453.776C172.447 453.529 173.101 453.406 173.838 453.406C174.899 453.406 175.735 453.636 176.344 454.096C176.953 454.552 177.356 455.163 177.552 455.93ZM183.981 463.55C183.06 463.55 182.257 463.339 181.571 462.917C180.885 462.495 180.352 461.905 179.973 461.146C179.594 460.388 179.404 459.501 179.404 458.487C179.404 457.469 179.594 456.578 179.973 455.815C180.352 455.053 180.885 454.46 181.571 454.038C182.257 453.617 183.06 453.406 183.981 453.406C184.901 453.406 185.705 453.617 186.391 454.038C187.077 454.46 187.609 455.053 187.989 455.815C188.368 456.578 188.558 457.469 188.558 458.487C188.558 459.501 188.368 460.388 187.989 461.146C187.609 461.905 187.077 462.495 186.391 462.917C185.705 463.339 184.901 463.55 183.981 463.55ZM183.987 461.945C184.584 461.945 185.078 461.788 185.47 461.472C185.862 461.157 186.152 460.737 186.34 460.213C186.531 459.689 186.627 459.112 186.627 458.481C186.627 457.854 186.531 457.279 186.34 456.755C186.152 456.227 185.862 455.803 185.47 455.483C185.078 455.163 184.584 455.004 183.987 455.004C183.386 455.004 182.888 455.163 182.491 455.483C182.099 455.803 181.808 456.227 181.616 456.755C181.428 457.279 181.335 457.854 181.335 458.481C181.335 459.112 181.428 459.689 181.616 460.213C181.808 460.737 182.099 461.157 182.491 461.472C182.888 461.788 183.386 461.945 183.987 461.945ZM198.048 455.93L196.316 456.237C196.243 456.016 196.128 455.805 195.971 455.604C195.817 455.404 195.609 455.24 195.344 455.112C195.08 454.984 194.75 454.92 194.354 454.92C193.812 454.92 193.361 455.042 192.998 455.285C192.636 455.523 192.455 455.832 192.455 456.212C192.455 456.54 192.577 456.804 192.819 457.004C193.062 457.205 193.454 457.369 193.996 457.496L195.555 457.854C196.459 458.063 197.132 458.385 197.575 458.82C198.018 459.254 198.24 459.819 198.24 460.514C198.24 461.102 198.069 461.626 197.729 462.086C197.392 462.542 196.921 462.9 196.316 463.16C195.715 463.42 195.018 463.55 194.226 463.55C193.126 463.55 192.229 463.315 191.535 462.847C190.84 462.374 190.414 461.702 190.256 460.833L192.104 460.552C192.219 461.033 192.455 461.398 192.813 461.645C193.171 461.888 193.638 462.009 194.213 462.009C194.839 462.009 195.34 461.879 195.715 461.619C196.09 461.355 196.278 461.033 196.278 460.654C196.278 460.347 196.162 460.09 195.932 459.881C195.707 459.672 195.359 459.514 194.89 459.408L193.229 459.043C192.312 458.835 191.635 458.502 191.196 458.046C190.761 457.59 190.544 457.013 190.544 456.314C190.544 455.734 190.706 455.227 191.03 454.793C191.354 454.358 191.801 454.019 192.372 453.776C192.943 453.529 193.597 453.406 194.334 453.406C195.395 453.406 196.231 453.636 196.84 454.096C197.449 454.552 197.852 455.163 198.048 455.93Z" fill="#767676"/>
<path d="M35.0551 493.09V482.909H41.1999V484.002H36.288V487.443H40.8818V488.536H36.288V491.997H41.2795V493.09H35.0551ZM44.1382 485.454L45.9677 488.576L47.7973 485.454H49.1495L46.6836 489.272L49.1495 493.09H47.7973L45.9677 490.127L44.1382 493.09H42.7859L45.212 489.272L42.7859 485.454H44.1382ZM50.8237 493.09V485.454H51.997V493.09H50.8237ZM51.4203 484.181C51.1916 484.181 50.9944 484.103 50.8287 483.948C50.6663 483.792 50.5851 483.605 50.5851 483.386C50.5851 483.167 50.6663 482.98 50.8287 482.824C50.9944 482.668 51.1916 482.59 51.4203 482.59C51.649 482.59 51.8445 482.668 52.0069 482.824C52.1727 482.98 52.2555 483.167 52.2555 483.386C52.2555 483.605 52.1727 483.792 52.0069 483.948C51.8445 484.103 51.649 484.181 51.4203 484.181ZM54.3051 493.09V482.909H55.4784V486.667H55.5778C55.664 486.534 55.7833 486.365 55.9357 486.16C56.0915 485.951 56.3136 485.766 56.6019 485.603C56.8936 485.437 57.288 485.355 57.7852 485.355C58.4282 485.355 58.9949 485.515 59.4855 485.837C59.976 486.158 60.3588 486.614 60.6339 487.204C60.909 487.794 61.0465 488.49 61.0465 489.292C61.0465 490.101 60.909 490.802 60.6339 491.395C60.3588 491.985 59.9776 492.442 59.4904 492.767C59.0032 493.089 58.4414 493.249 57.8051 493.249C57.3145 493.249 56.9218 493.168 56.6268 493.006C56.3318 492.84 56.1048 492.653 55.9457 492.444C55.7866 492.232 55.664 492.056 55.5778 491.917H55.4386V493.09H54.3051ZM55.4585 489.272C55.4585 489.849 55.543 490.358 55.712 490.798C55.8811 491.236 56.128 491.579 56.4528 491.828C56.7776 492.073 57.1753 492.195 57.646 492.195C58.1365 492.195 58.5458 492.066 58.874 491.808C59.2054 491.546 59.454 491.195 59.6197 490.754C59.7887 490.31 59.8732 489.816 59.8732 489.272C59.8732 488.735 59.7904 488.251 59.6247 487.82C59.4623 487.386 59.2153 487.043 58.8839 486.791C58.5558 486.536 58.1431 486.409 57.646 486.409C57.1687 486.409 56.7677 486.53 56.4428 486.771C56.118 487.01 55.8728 487.345 55.7071 487.776C55.5413 488.203 55.4585 488.702 55.4585 489.272ZM62.8413 493.09V485.454H64.0146V493.09H62.8413ZM63.4379 484.181C63.2092 484.181 63.012 484.103 62.8463 483.948C62.6839 483.792 62.6026 483.605 62.6026 483.386C62.6026 483.167 62.6839 482.98 62.8463 482.824C63.012 482.668 63.2092 482.59 63.4379 482.59C63.6666 482.59 63.8621 482.668 64.0245 482.824C64.1902 482.98 64.2731 483.167 64.2731 483.386C64.2731 483.605 64.1902 483.792 64.0245 483.948C63.8621 484.103 63.6666 484.181 63.4379 484.181ZM67.3368 488.497V493.09H66.1636V485.454H67.2971V486.647H67.3965C67.5755 486.259 67.8473 485.948 68.2118 485.713C68.5764 485.474 69.0471 485.355 69.6238 485.355C70.1408 485.355 70.5932 485.461 70.981 485.673C71.3688 485.882 71.6704 486.2 71.8859 486.627C72.1013 487.052 72.209 487.588 72.209 488.238V493.09H71.0357V488.318C71.0357 487.718 70.8799 487.25 70.5684 486.916C70.2568 486.578 69.8293 486.409 69.2857 486.409C68.9112 486.409 68.5764 486.49 68.2814 486.652C67.9898 486.815 67.7594 487.052 67.5904 487.363C67.4214 487.675 67.3368 488.052 67.3368 488.497ZM77.2365 493.249C76.6002 493.249 76.0384 493.089 75.5512 492.767C75.0639 492.442 74.6828 491.985 74.4077 491.395C74.1326 490.802 73.995 490.101 73.995 489.292C73.995 488.49 74.1326 487.794 74.4077 487.204C74.6828 486.614 75.0656 486.158 75.5561 485.837C76.0467 485.515 76.6134 485.355 77.2564 485.355C77.7536 485.355 78.1463 485.437 78.4347 485.603C78.7263 485.766 78.9484 485.951 79.1009 486.16C79.2567 486.365 79.3776 486.534 79.4638 486.667H79.5632V482.909H80.7365V493.09H79.603V491.917H79.4638C79.3776 492.056 79.255 492.232 79.0959 492.444C78.9368 492.653 78.7098 492.84 78.4148 493.006C78.1198 493.168 77.7271 493.249 77.2365 493.249ZM77.3956 492.195C77.8663 492.195 78.264 492.073 78.5888 491.828C78.9136 491.579 79.1605 491.236 79.3296 490.798C79.4986 490.358 79.5831 489.849 79.5831 489.272C79.5831 488.702 79.5003 488.203 79.3345 487.776C79.1688 487.345 78.9236 487.01 78.5987 486.771C78.2739 486.53 77.8729 486.409 77.3956 486.409C76.8985 486.409 76.4842 486.536 76.1527 486.791C75.8246 487.043 75.5777 487.386 75.412 487.82C75.2495 488.251 75.1683 488.735 75.1683 489.272C75.1683 489.816 75.2512 490.31 75.4169 490.754C75.586 491.195 75.8345 491.546 76.1627 491.808C76.4941 492.066 76.9051 492.195 77.3956 492.195ZM86.1506 493.249C85.4612 493.249 84.8563 493.085 84.336 492.757C83.8189 492.429 83.4146 491.97 83.1229 491.38C82.8345 490.79 82.6904 490.101 82.6904 489.312C82.6904 488.516 82.8345 487.822 83.1229 487.229C83.4146 486.636 83.8189 486.175 84.336 485.847C84.8563 485.519 85.4612 485.355 86.1506 485.355C86.84 485.355 87.4432 485.519 87.9602 485.847C88.4806 486.175 88.885 486.636 89.1733 487.229C89.465 487.822 89.6108 488.516 89.6108 489.312C89.6108 490.101 89.465 490.79 89.1733 491.38C88.885 491.97 88.4806 492.429 87.9602 492.757C87.4432 493.085 86.84 493.249 86.1506 493.249ZM86.1506 492.195C86.6743 492.195 87.1051 492.061 87.4432 491.793C87.7813 491.524 88.0315 491.171 88.1939 490.734C88.3563 490.296 88.4375 489.822 88.4375 489.312C88.4375 488.802 88.3563 488.326 88.1939 487.885C88.0315 487.444 87.7813 487.088 87.4432 486.816C87.1051 486.544 86.6743 486.409 86.1506 486.409C85.6269 486.409 85.196 486.544 84.858 486.816C84.5199 487.088 84.2697 487.444 84.1073 487.885C83.9449 488.326 83.8637 488.802 83.8637 489.312C83.8637 489.822 83.9449 490.296 84.1073 490.734C84.2697 491.171 84.5199 491.524 84.858 491.793C85.196 492.061 85.6269 492.195 86.1506 492.195ZM97.5865 493.269C97.1026 493.269 96.6634 493.178 96.269 492.996C95.8746 492.81 95.5614 492.543 95.3294 492.195C95.0974 491.844 94.9814 491.42 94.9814 490.923C94.9814 490.485 95.0676 490.131 95.2399 489.859C95.4122 489.584 95.6426 489.368 95.931 489.213C96.2193 489.057 96.5375 488.941 96.8855 488.865C97.2368 488.785 97.5898 488.722 97.9444 488.676C98.4085 488.616 98.7846 488.571 99.073 488.541C99.3647 488.508 99.5768 488.454 99.7094 488.377C99.8453 488.301 99.9132 488.168 99.9132 487.98V487.94C99.9132 487.449 99.779 487.068 99.5105 486.796C99.2453 486.525 98.8426 486.389 98.3024 486.389C97.7423 486.389 97.3031 486.511 96.9849 486.757C96.6667 487.002 96.443 487.264 96.3138 487.542L95.2001 487.144C95.399 486.68 95.6641 486.319 95.9956 486.061C96.3303 485.799 96.6949 485.616 97.0893 485.514C97.4871 485.408 97.8782 485.355 98.2626 485.355C98.5079 485.355 98.7896 485.384 99.1078 485.444C99.4293 485.5 99.7392 485.618 100.037 485.797C100.339 485.976 100.589 486.246 100.788 486.607C100.987 486.969 101.086 487.453 101.086 488.059V493.09H99.9132V492.056H99.8535C99.774 492.222 99.6414 492.399 99.4558 492.588C99.2702 492.777 99.0233 492.938 98.715 493.07C98.4068 493.203 98.0306 493.269 97.5865 493.269ZM97.7655 492.215C98.2295 492.215 98.6206 492.124 98.9388 491.942C99.2603 491.76 99.5022 491.524 99.6646 491.236C99.8303 490.948 99.9132 490.644 99.9132 490.326V489.252C99.8635 489.312 99.7541 489.367 99.5851 489.416C99.4194 489.463 99.2271 489.504 99.0084 489.541C98.7929 489.574 98.5825 489.604 98.377 489.63C98.1748 489.653 98.0107 489.673 97.8848 489.69C97.5799 489.73 97.2948 489.794 97.0297 489.884C96.7678 489.97 96.5557 490.101 96.3933 490.276C96.2342 490.449 96.1547 490.684 96.1547 490.982C96.1547 491.39 96.3055 491.698 96.6071 491.907C96.912 492.113 97.2981 492.215 97.7655 492.215ZM110.268 493.249C109.552 493.249 108.935 493.08 108.418 492.742C107.901 492.404 107.504 491.939 107.225 491.345C106.947 490.752 106.808 490.074 106.808 489.312C106.808 488.536 106.95 487.852 107.235 487.259C107.523 486.662 107.925 486.196 108.438 485.862C108.955 485.524 109.558 485.355 110.248 485.355C110.785 485.355 111.269 485.454 111.7 485.653C112.13 485.852 112.483 486.13 112.759 486.488C113.034 486.846 113.204 487.264 113.271 487.741H112.097C112.008 487.393 111.809 487.085 111.501 486.816C111.196 486.544 110.785 486.409 110.268 486.409C109.81 486.409 109.409 486.528 109.065 486.766C108.723 487.002 108.456 487.335 108.264 487.766C108.075 488.193 107.981 488.695 107.981 489.272C107.981 489.862 108.074 490.376 108.259 490.813C108.448 491.251 108.713 491.591 109.055 491.833C109.399 492.075 109.804 492.195 110.268 492.195C110.573 492.195 110.849 492.142 111.098 492.036C111.347 491.93 111.557 491.778 111.729 491.579C111.902 491.38 112.024 491.141 112.097 490.863H113.271C113.204 491.314 113.04 491.72 112.778 492.081C112.52 492.439 112.177 492.724 111.749 492.936C111.325 493.145 110.831 493.249 110.268 493.249ZM118.088 493.249C117.399 493.249 116.794 493.085 116.273 492.757C115.756 492.429 115.352 491.97 115.06 491.38C114.772 490.79 114.628 490.101 114.628 489.312C114.628 488.516 114.772 487.822 115.06 487.229C115.352 486.636 115.756 486.175 116.273 485.847C116.794 485.519 117.399 485.355 118.088 485.355C118.777 485.355 119.381 485.519 119.898 485.847C120.418 486.175 120.822 486.636 121.111 487.229C121.402 487.822 121.548 488.516 121.548 489.312C121.548 490.101 121.402 490.79 121.111 491.38C120.822 491.97 120.418 492.429 119.898 492.757C119.381 493.085 118.777 493.249 118.088 493.249ZM118.088 492.195C118.612 492.195 119.043 492.061 119.381 491.793C119.719 491.524 119.969 491.171 120.131 490.734C120.294 490.296 120.375 489.822 120.375 489.312C120.375 488.802 120.294 488.326 120.131 487.885C119.969 487.444 119.719 487.088 119.381 486.816C119.043 486.544 118.612 486.409 118.088 486.409C117.564 486.409 117.134 486.544 116.795 486.816C116.457 487.088 116.207 487.444 116.045 487.885C115.882 488.326 115.801 488.802 115.801 489.312C115.801 489.822 115.882 490.296 116.045 490.734C116.207 491.171 116.457 491.524 116.795 491.793C117.134 492.061 117.564 492.195 118.088 492.195ZM126.66 485.454V486.448H122.703V485.454H126.66ZM123.856 483.624H125.03V490.903C125.03 491.234 125.078 491.483 125.174 491.649C125.273 491.811 125.399 491.92 125.552 491.977C125.707 492.03 125.872 492.056 126.044 492.056C126.173 492.056 126.279 492.05 126.362 492.036C126.445 492.02 126.511 492.007 126.561 491.997L126.8 493.051C126.72 493.08 126.609 493.11 126.466 493.14C126.324 493.173 126.143 493.19 125.925 493.19C125.593 493.19 125.268 493.119 124.95 492.976C124.635 492.833 124.373 492.616 124.165 492.325C123.959 492.033 123.856 491.665 123.856 491.221V483.624ZM130.672 493.269C130.189 493.269 129.749 493.178 129.355 492.996C128.961 492.81 128.647 492.543 128.415 492.195C128.183 491.844 128.067 491.42 128.067 490.923C128.067 490.485 128.153 490.131 128.326 489.859C128.498 489.584 128.729 489.368 129.017 489.213C129.305 489.057 129.623 488.941 129.971 488.865C130.323 488.785 130.676 488.722 131.03 488.676C131.494 488.616 131.871 488.571 132.159 488.541C132.451 488.508 132.663 488.454 132.795 488.377C132.931 488.301 132.999 488.168 132.999 487.98V487.94C132.999 487.449 132.865 487.068 132.596 486.796C132.331 486.525 131.929 486.389 131.388 486.389C130.828 486.389 130.389 486.511 130.071 486.757C129.753 487.002 129.529 487.264 129.4 487.542L128.286 487.144C128.485 486.68 128.75 486.319 129.082 486.061C129.416 485.799 129.781 485.616 130.175 485.514C130.573 485.408 130.964 485.355 131.349 485.355C131.594 485.355 131.876 485.384 132.194 485.444C132.515 485.5 132.825 485.618 133.123 485.797C133.425 485.976 133.675 486.246 133.874 486.607C134.073 486.969 134.172 487.453 134.172 488.059V493.09H132.999V492.056H132.939C132.86 492.222 132.727 492.399 132.542 492.588C132.356 492.777 132.109 492.938 131.801 493.07C131.493 493.203 131.117 493.269 130.672 493.269ZM130.851 492.215C131.315 492.215 131.707 492.124 132.025 491.942C132.346 491.76 132.588 491.524 132.751 491.236C132.916 490.948 132.999 490.644 132.999 490.326V489.252C132.949 489.312 132.84 489.367 132.671 489.416C132.505 489.463 132.313 489.504 132.094 489.541C131.879 489.574 131.668 489.604 131.463 489.63C131.261 489.653 131.097 489.673 130.971 489.69C130.666 489.73 130.381 489.794 130.116 489.884C129.854 489.97 129.642 490.101 129.479 490.276C129.32 490.449 129.241 490.684 129.241 490.982C129.241 491.39 129.391 491.698 129.693 491.907C129.998 492.113 130.384 492.215 130.851 492.215ZM139.416 493.249C138.7 493.249 138.084 493.08 137.567 492.742C137.05 492.404 136.652 491.939 136.374 491.345C136.095 490.752 135.956 490.074 135.956 489.312C135.956 488.536 136.099 487.852 136.384 487.259C136.672 486.662 137.073 486.196 137.587 485.862C138.104 485.524 138.707 485.355 139.396 485.355C139.933 485.355 140.417 485.454 140.848 485.653C141.279 485.852 141.632 486.13 141.907 486.488C142.182 486.846 142.353 487.264 142.419 487.741H141.246C141.156 487.393 140.957 487.085 140.649 486.816C140.344 486.544 139.933 486.409 139.416 486.409C138.959 486.409 138.558 486.528 138.213 486.766C137.872 487.002 137.605 487.335 137.413 487.766C137.224 488.193 137.129 488.695 137.129 489.272C137.129 489.862 137.222 490.376 137.408 490.813C137.597 491.251 137.862 491.591 138.203 491.833C138.548 492.075 138.952 492.195 139.416 492.195C139.721 492.195 139.998 492.142 140.246 492.036C140.495 491.93 140.706 491.778 140.878 491.579C141.05 491.38 141.173 491.141 141.246 490.863H142.419C142.353 491.314 142.189 491.72 141.927 492.081C141.668 492.439 141.325 492.724 140.898 492.936C140.474 493.145 139.98 493.249 139.416 493.249ZM138.859 493.051H139.834L139.754 493.448C140.013 493.488 140.25 493.596 140.465 493.771C140.681 493.95 140.788 494.234 140.788 494.622C140.788 495.049 140.611 495.397 140.256 495.666C139.905 495.937 139.386 496.073 138.7 496.073L138.661 495.298C138.969 495.298 139.224 495.248 139.426 495.149C139.632 495.052 139.734 494.89 139.734 494.661C139.734 494.433 139.65 494.277 139.481 494.194C139.312 494.111 139.038 494.055 138.661 494.025L138.859 493.051ZM146.381 493.269C145.898 493.269 145.458 493.178 145.064 492.996C144.67 492.81 144.356 492.543 144.124 492.195C143.892 491.844 143.776 491.42 143.776 490.923C143.776 490.485 143.862 490.131 144.035 489.859C144.207 489.584 144.438 489.368 144.726 489.213C145.014 489.057 145.332 488.941 145.68 488.865C146.032 488.785 146.385 488.722 146.739 488.676C147.203 488.616 147.58 488.571 147.868 488.541C148.16 488.508 148.372 488.454 148.504 488.377C148.64 488.301 148.708 488.168 148.708 487.98V487.94C148.708 487.449 148.574 487.068 148.305 486.796C148.04 486.525 147.638 486.389 147.097 486.389C146.537 486.389 146.098 486.511 145.78 486.757C145.462 487.002 145.238 487.264 145.109 487.542L143.995 487.144C144.194 486.68 144.459 486.319 144.791 486.061C145.125 485.799 145.49 485.616 145.884 485.514C146.282 485.408 146.673 485.355 147.058 485.355C147.303 485.355 147.585 485.384 147.903 485.444C148.224 485.5 148.534 485.618 148.832 485.797C149.134 485.976 149.384 486.246 149.583 486.607C149.782 486.969 149.881 487.453 149.881 488.059V493.09H148.708V492.056H148.648C148.569 492.222 148.436 492.399 148.251 492.588C148.065 492.777 147.818 492.938 147.51 493.07C147.202 493.203 146.826 493.269 146.381 493.269ZM146.56 492.215C147.024 492.215 147.416 492.124 147.734 491.942C148.055 491.76 148.297 491.524 148.46 491.236C148.625 490.948 148.708 490.644 148.708 490.326V489.252C148.658 489.312 148.549 489.367 148.38 489.416C148.214 489.463 148.022 489.504 147.803 489.541C147.588 489.574 147.377 489.604 147.172 489.63C146.97 489.653 146.806 489.673 146.68 489.69C146.375 489.73 146.09 489.794 145.825 489.884C145.563 489.97 145.351 490.101 145.188 490.276C145.029 490.449 144.95 490.684 144.95 490.982C144.95 491.39 145.1 491.698 145.402 491.907C145.707 492.113 146.093 492.215 146.56 492.215ZM145.606 484.539L144.691 484.499C144.691 483.992 144.835 483.578 145.124 483.257C145.415 482.932 145.775 482.769 146.202 482.769C146.391 482.769 146.559 482.802 146.705 482.869C146.85 482.932 146.99 483.005 147.122 483.088C147.255 483.17 147.391 483.245 147.53 483.311C147.672 483.374 147.833 483.406 148.012 483.406C148.201 483.406 148.36 483.333 148.489 483.187C148.622 483.038 148.688 482.859 148.688 482.65L149.583 482.73C149.583 483.247 149.437 483.658 149.146 483.963C148.857 484.267 148.499 484.42 148.072 484.42C147.843 484.42 147.654 484.388 147.505 484.325C147.356 484.259 147.223 484.185 147.107 484.102C146.991 484.019 146.869 483.946 146.739 483.883C146.61 483.817 146.451 483.784 146.262 483.784C146.073 483.784 145.916 483.858 145.79 484.007C145.667 484.153 145.606 484.33 145.606 484.539ZM155.125 493.249C154.436 493.249 153.831 493.085 153.311 492.757C152.794 492.429 152.389 491.97 152.097 491.38C151.809 490.79 151.665 490.101 151.665 489.312C151.665 488.516 151.809 487.822 152.097 487.229C152.389 486.636 152.794 486.175 153.311 485.847C153.831 485.519 154.436 485.355 155.125 485.355C155.815 485.355 156.418 485.519 156.935 485.847C157.455 486.175 157.86 486.636 158.148 487.229C158.44 487.822 158.585 488.516 158.585 489.312C158.585 490.101 158.44 490.79 158.148 491.38C157.86 491.97 157.455 492.429 156.935 492.757C156.418 493.085 155.815 493.249 155.125 493.249ZM155.125 492.195C155.649 492.195 156.08 492.061 156.418 491.793C156.756 491.524 157.006 491.171 157.169 490.734C157.331 490.296 157.412 489.822 157.412 489.312C157.412 488.802 157.331 488.326 157.169 487.885C157.006 487.444 156.756 487.088 156.418 486.816C156.08 486.544 155.649 486.409 155.125 486.409C154.602 486.409 154.171 486.544 153.833 486.816C153.495 487.088 153.244 487.444 153.082 487.885C152.919 488.326 152.838 488.802 152.838 489.312C152.838 489.822 152.919 490.296 153.082 490.734C153.244 491.171 153.495 491.524 153.833 491.793C154.171 492.061 154.602 492.195 155.125 492.195ZM167.197 493.249C166.561 493.249 165.999 493.089 165.512 492.767C165.025 492.442 164.644 491.985 164.369 491.395C164.094 490.802 163.956 490.101 163.956 489.292C163.956 488.49 164.094 487.794 164.369 487.204C164.644 486.614 165.027 486.158 165.517 485.837C166.008 485.515 166.574 485.355 167.217 485.355C167.715 485.355 168.107 485.437 168.396 485.603C168.687 485.766 168.909 485.951 169.062 486.16C169.218 486.365 169.339 486.534 169.425 486.667H169.524V482.909H170.697V493.09H169.564V491.917H169.425C169.339 492.056 169.216 492.232 169.057 492.444C168.898 492.653 168.671 492.84 168.376 493.006C168.081 493.168 167.688 493.249 167.197 493.249ZM167.357 492.195C167.827 492.195 168.225 492.073 168.55 491.828C168.875 491.579 169.121 491.236 169.291 490.798C169.46 490.358 169.544 489.849 169.544 489.272C169.544 488.702 169.461 488.203 169.295 487.776C169.13 487.345 168.884 487.01 168.56 486.771C168.235 486.53 167.834 486.409 167.357 486.409C166.859 486.409 166.445 486.536 166.114 486.791C165.786 487.043 165.539 487.386 165.373 487.82C165.21 488.251 165.129 488.735 165.129 489.272C165.129 489.816 165.212 490.31 165.378 490.754C165.547 491.195 165.795 491.546 166.124 491.808C166.455 492.066 166.866 492.195 167.357 492.195ZM176.112 493.249C175.422 493.249 174.817 493.085 174.297 492.757C173.78 492.429 173.375 491.97 173.084 491.38C172.795 490.79 172.651 490.101 172.651 489.312C172.651 488.516 172.795 487.822 173.084 487.229C173.375 486.636 173.78 486.175 174.297 485.847C174.817 485.519 175.422 485.355 176.112 485.355C176.801 485.355 177.404 485.519 177.921 485.847C178.442 486.175 178.846 486.636 179.134 487.229C179.426 487.822 179.572 488.516 179.572 489.312C179.572 490.101 179.426 490.79 179.134 491.38C178.846 491.97 178.442 492.429 177.921 492.757C177.404 493.085 176.801 493.249 176.112 493.249ZM176.112 492.195C176.635 492.195 177.066 492.061 177.404 491.793C177.742 491.524 177.992 491.171 178.155 490.734C178.317 490.296 178.398 489.822 178.398 489.312C178.398 488.802 178.317 488.326 178.155 487.885C177.992 487.444 177.742 487.088 177.404 486.816C177.066 486.544 176.635 486.409 176.112 486.409C175.588 486.409 175.157 486.544 174.819 486.816C174.481 487.088 174.231 487.444 174.068 487.885C173.906 488.326 173.825 488.802 173.825 489.312C173.825 489.822 173.906 490.296 174.068 490.734C174.231 491.171 174.481 491.524 174.819 491.793C175.157 492.061 175.588 492.195 176.112 492.195ZM186.772 487.164L185.718 487.463C185.652 487.287 185.554 487.116 185.425 486.95C185.299 486.781 185.126 486.642 184.908 486.533C184.689 486.423 184.409 486.369 184.067 486.369C183.6 486.369 183.211 486.476 182.899 486.692C182.591 486.904 182.437 487.174 182.437 487.502C182.437 487.794 182.543 488.024 182.755 488.193C182.967 488.362 183.298 488.503 183.749 488.616L184.883 488.894C185.565 489.06 186.074 489.314 186.409 489.655C186.744 489.993 186.911 490.429 186.911 490.963C186.911 491.4 186.785 491.791 186.533 492.136C186.285 492.481 185.937 492.752 185.489 492.951C185.042 493.15 184.521 493.249 183.928 493.249C183.149 493.249 182.505 493.08 181.994 492.742C181.484 492.404 181.161 491.91 181.025 491.261L182.138 490.982C182.244 491.393 182.445 491.702 182.74 491.907C183.038 492.113 183.428 492.215 183.908 492.215C184.455 492.215 184.889 492.099 185.211 491.867C185.536 491.632 185.698 491.35 185.698 491.022C185.698 490.757 185.605 490.535 185.42 490.356C185.234 490.174 184.949 490.038 184.564 489.948L183.292 489.65C182.592 489.484 182.079 489.227 181.751 488.879C181.426 488.528 181.263 488.089 181.263 487.562C181.263 487.131 181.384 486.75 181.626 486.418C181.872 486.087 182.205 485.827 182.626 485.638C183.05 485.449 183.53 485.355 184.067 485.355C184.823 485.355 185.416 485.52 185.847 485.852C186.281 486.183 186.59 486.621 186.772 487.164ZM197.427 489.968V485.454H198.601V493.09H197.427V491.798H197.348C197.169 492.186 196.89 492.515 196.512 492.787C196.135 493.056 195.657 493.19 195.081 493.19C194.603 493.19 194.179 493.085 193.808 492.877C193.437 492.664 193.145 492.346 192.933 491.922C192.721 491.494 192.615 490.956 192.615 490.306V485.454H193.788V490.227C193.788 490.784 193.944 491.228 194.255 491.559C194.57 491.891 194.971 492.056 195.458 492.056C195.75 492.056 196.047 491.982 196.348 491.833C196.653 491.683 196.909 491.455 197.114 491.146C197.323 490.838 197.427 490.445 197.427 489.968ZM195.081 484.42L196.294 482.113H197.666L196.115 484.42H195.081ZM201.923 482.909V493.09H200.749V482.909H201.923ZM207.393 485.454V486.448H203.435V485.454H207.393ZM204.589 483.624H205.762V490.903C205.762 491.234 205.81 491.483 205.906 491.649C206.006 491.811 206.132 491.92 206.284 491.977C206.44 492.03 206.604 492.056 206.776 492.056C206.906 492.056 207.012 492.05 207.094 492.036C207.177 492.02 207.244 492.007 207.293 491.997L207.532 493.051C207.452 493.08 207.341 493.11 207.199 493.14C207.056 493.173 206.876 493.19 206.657 493.19C206.326 493.19 206.001 493.119 205.683 492.976C205.368 492.833 205.106 492.616 204.897 492.325C204.692 492.033 204.589 491.665 204.589 491.221V483.624ZM209.158 493.09V485.454H210.331V493.09H209.158ZM209.754 484.181C209.526 484.181 209.328 484.103 209.163 483.948C209 483.792 208.919 483.605 208.919 483.386C208.919 483.167 209 482.98 209.163 482.824C209.328 482.668 209.526 482.59 209.754 482.59C209.983 482.59 210.179 482.668 210.341 482.824C210.507 482.98 210.59 483.167 210.59 483.386C210.59 483.605 210.507 483.792 210.341 483.948C210.179 484.103 209.983 484.181 209.754 484.181ZM212.48 493.09V485.454H213.613V486.647H213.713C213.872 486.24 214.129 485.923 214.484 485.698C214.838 485.469 215.264 485.355 215.761 485.355C216.265 485.355 216.684 485.469 217.019 485.698C217.357 485.923 217.621 486.24 217.81 486.647H217.889C218.085 486.253 218.378 485.94 218.769 485.708C219.16 485.472 219.629 485.355 220.176 485.355C220.859 485.355 221.417 485.568 221.851 485.996C222.286 486.42 222.503 487.081 222.503 487.98V493.09H221.329V487.98C221.329 487.416 221.175 487.013 220.867 486.771C220.559 486.53 220.196 486.409 219.778 486.409C219.241 486.409 218.825 486.571 218.53 486.896C218.235 487.217 218.088 487.625 218.088 488.119V493.09H216.895V487.86C216.895 487.426 216.754 487.076 216.472 486.811C216.19 486.543 215.827 486.409 215.383 486.409C215.078 486.409 214.793 486.49 214.528 486.652C214.266 486.815 214.054 487.04 213.892 487.328C213.733 487.613 213.653 487.943 213.653 488.318V493.09H212.48ZM227.75 493.249C227.061 493.249 226.456 493.085 225.936 492.757C225.419 492.429 225.014 491.97 224.722 491.38C224.434 490.79 224.29 490.101 224.29 489.312C224.29 488.516 224.434 487.822 224.722 487.229C225.014 486.636 225.419 486.175 225.936 485.847C226.456 485.519 227.061 485.355 227.75 485.355C228.44 485.355 229.043 485.519 229.56 485.847C230.08 486.175 230.485 486.636 230.773 487.229C231.065 487.822 231.21 488.516 231.21 489.312C231.21 490.101 231.065 490.79 230.773 491.38C230.485 491.97 230.08 492.429 229.56 492.757C229.043 493.085 228.44 493.249 227.75 493.249ZM227.75 492.195C228.274 492.195 228.705 492.061 229.043 491.793C229.381 491.524 229.631 491.171 229.794 490.734C229.956 490.296 230.037 489.822 230.037 489.312C230.037 488.802 229.956 488.326 229.794 487.885C229.631 487.444 229.381 487.088 229.043 486.816C228.705 486.544 228.274 486.409 227.75 486.409C227.227 486.409 226.796 486.544 226.458 486.816C226.12 487.088 225.869 487.444 225.707 487.885C225.544 488.326 225.463 488.802 225.463 489.312C225.463 489.822 225.544 490.296 225.707 490.734C225.869 491.171 226.12 491.524 226.458 491.793C226.796 492.061 227.227 492.195 227.75 492.195ZM238.411 487.164L237.357 487.463C237.29 487.287 237.192 487.116 237.063 486.95C236.937 486.781 236.765 486.642 236.546 486.533C236.327 486.423 236.047 486.369 235.706 486.369C235.239 486.369 234.849 486.476 234.538 486.692C234.229 486.904 234.075 487.174 234.075 487.502C234.075 487.794 234.181 488.024 234.393 488.193C234.606 488.362 234.937 488.503 235.388 488.616L236.521 488.894C237.204 489.06 237.713 489.314 238.048 489.655C238.382 489.993 238.55 490.429 238.55 490.963C238.55 491.4 238.424 491.791 238.172 492.136C237.923 492.481 237.575 492.752 237.128 492.951C236.68 493.15 236.16 493.249 235.567 493.249C234.788 493.249 234.143 493.08 233.633 492.742C233.122 492.404 232.799 491.91 232.663 491.261L233.777 490.982C233.883 491.393 234.084 491.702 234.379 491.907C234.677 492.113 235.066 492.215 235.547 492.215C236.094 492.215 236.528 492.099 236.849 491.867C237.174 491.632 237.337 491.35 237.337 491.022C237.337 490.757 237.244 490.535 237.058 490.356C236.873 490.174 236.588 490.038 236.203 489.948L234.93 489.65C234.231 489.484 233.717 489.227 233.389 488.879C233.064 488.528 232.902 488.089 232.902 487.562C232.902 487.131 233.023 486.75 233.265 486.418C233.51 486.087 233.843 485.827 234.264 485.638C234.688 485.449 235.169 485.355 235.706 485.355C236.462 485.355 237.055 485.52 237.486 485.852C237.92 486.183 238.228 486.621 238.411 487.164ZM244.552 493.09L249.106 484.082V484.002H243.856V482.909H250.378V484.062L245.844 493.09H244.552ZM259.072 493.249C258.436 493.249 257.874 493.089 257.387 492.767C256.9 492.442 256.519 491.985 256.244 491.395C255.969 490.802 255.831 490.101 255.831 489.292C255.831 488.49 255.969 487.794 256.244 487.204C256.519 486.614 256.902 486.158 257.392 485.837C257.883 485.515 258.449 485.355 259.092 485.355C259.59 485.355 259.982 485.437 260.271 485.603C260.562 485.766 260.784 485.951 260.937 486.16C261.093 486.365 261.214 486.534 261.3 486.667H261.399V482.909H262.572V493.09H261.439V491.917H261.3C261.214 492.056 261.091 492.232 260.932 492.444C260.773 492.653 260.546 492.84 260.251 493.006C259.956 493.168 259.563 493.249 259.072 493.249ZM259.232 492.195C259.702 492.195 260.1 492.073 260.425 491.828C260.75 491.579 260.996 491.236 261.166 490.798C261.335 490.358 261.419 489.849 261.419 489.272C261.419 488.702 261.336 488.203 261.17 487.776C261.005 487.345 260.759 487.01 260.435 486.771C260.11 486.53 259.709 486.409 259.232 486.409C258.734 486.409 258.32 486.536 257.989 486.791C257.661 487.043 257.414 487.386 257.248 487.82C257.085 488.251 257.004 488.735 257.004 489.272C257.004 489.816 257.087 490.31 257.253 490.754C257.422 491.195 257.67 491.546 257.999 491.808C258.33 492.066 258.741 492.195 259.232 492.195ZM264.884 493.09V485.454H266.058V493.09H264.884ZM265.481 484.181C265.252 484.181 265.055 484.103 264.889 483.948C264.727 483.792 264.646 483.605 264.646 483.386C264.646 483.167 264.727 482.98 264.889 482.824C265.055 482.668 265.252 482.59 265.481 482.59C265.71 482.59 265.905 482.668 266.067 482.824C266.233 482.98 266.316 483.167 266.316 483.386C266.316 483.605 266.233 483.792 266.067 483.948C265.905 484.103 265.71 484.181 265.481 484.181ZM270.454 493.269C269.97 493.269 269.531 493.178 269.136 492.996C268.742 492.81 268.429 492.543 268.197 492.195C267.965 491.844 267.849 491.42 267.849 490.923C267.849 490.485 267.935 490.131 268.107 489.859C268.279 489.584 268.51 489.368 268.798 489.213C269.086 489.057 269.405 488.941 269.753 488.865C270.104 488.785 270.457 488.722 270.812 488.676C271.276 488.616 271.652 488.571 271.94 488.541C272.232 488.508 272.444 488.454 272.577 488.377C272.712 488.301 272.78 488.168 272.78 487.98V487.94C272.78 487.449 272.646 487.068 272.378 486.796C272.113 486.525 271.71 486.389 271.17 486.389C270.609 486.389 270.17 486.511 269.852 486.757C269.534 487.002 269.31 487.264 269.181 487.542L268.067 487.144C268.266 486.68 268.531 486.319 268.863 486.061C269.198 485.799 269.562 485.616 269.957 485.514C270.354 485.408 270.745 485.355 271.13 485.355C271.375 485.355 271.657 485.384 271.975 485.444C272.296 485.5 272.606 485.618 272.905 485.797C273.206 485.976 273.457 486.246 273.655 486.607C273.854 486.969 273.954 487.453 273.954 488.059V493.09H272.78V492.056H272.721C272.641 492.222 272.509 492.399 272.323 492.588C272.137 492.777 271.89 492.938 271.582 493.07C271.274 493.203 270.898 493.269 270.454 493.269ZM270.633 492.215C271.097 492.215 271.488 492.124 271.806 491.942C272.127 491.76 272.369 491.524 272.532 491.236C272.698 490.948 272.78 490.644 272.78 490.326V489.252C272.731 489.312 272.621 489.367 272.452 489.416C272.287 489.463 272.094 489.504 271.876 489.541C271.66 489.574 271.45 489.604 271.244 489.63C271.042 489.653 270.878 489.673 270.752 489.69C270.447 489.73 270.162 489.794 269.897 489.884C269.635 489.97 269.423 490.101 269.26 490.276C269.101 490.449 269.022 490.684 269.022 490.982C269.022 491.39 269.173 491.698 269.474 491.907C269.779 492.113 270.165 492.215 270.633 492.215ZM281.504 487.164L280.45 487.463C280.384 487.287 280.286 487.116 280.157 486.95C280.031 486.781 279.859 486.642 279.64 486.533C279.421 486.423 279.141 486.369 278.8 486.369C278.332 486.369 277.943 486.476 277.631 486.692C277.323 486.904 277.169 487.174 277.169 487.502C277.169 487.794 277.275 488.024 277.487 488.193C277.699 488.362 278.031 488.503 278.482 488.616L279.615 488.894C280.298 489.06 280.807 489.314 281.141 489.655C281.476 489.993 281.643 490.429 281.643 490.963C281.643 491.4 281.518 491.791 281.266 492.136C281.017 492.481 280.669 492.752 280.222 492.951C279.774 493.15 279.254 493.249 278.661 493.249C277.882 493.249 277.237 493.08 276.727 492.742C276.216 492.404 275.893 491.91 275.757 491.261L276.871 490.982C276.977 491.393 277.177 491.702 277.472 491.907C277.771 492.113 278.16 492.215 278.641 492.215C279.188 492.215 279.622 492.099 279.943 491.867C280.268 491.632 280.43 491.35 280.43 491.022C280.43 490.757 280.338 490.535 280.152 490.356C279.966 490.174 279.681 490.038 279.297 489.948L278.024 489.65C277.325 489.484 276.811 489.227 276.483 488.879C276.158 488.528 275.996 488.089 275.996 487.562C275.996 487.131 276.117 486.75 276.359 486.418C276.604 486.087 276.937 485.827 277.358 485.638C277.782 485.449 278.263 485.355 278.8 485.355C279.555 485.355 280.149 485.52 280.58 485.852C281.014 486.183 281.322 486.621 281.504 487.164Z" fill="#767676"/>
<path d="M306 67L311.774 57L300.226 57L306 67ZM305 47L305 58L307 58L307 47L305 47Z" fill="#314CFF"/>
</g>
<defs>
<filter id="filter0_d_3004_157" x="0.943481" y="0.537598" width="484" height="548" filterUnits="userSpaceOnUse" color-interpolation-filters="sRGB">
<feFlood flood-opacity="0" result="BackgroundImageFix"/>
<feColorMatrix in="SourceAlpha" type="matrix" values="0 0 0 0 0 0 0 0 0 0 0 0 0 0 0 0 0 0 127 0" result="hardAlpha"/>
<feOffset/>
<feGaussianBlur stdDeviation="2"/>
<feComposite in2="hardAlpha" operator="out"/>
<feColorMatrix type="matrix" values="0 0 0 0 0 0 0 0 0 0 0 0 0 0 0 0 0 0 0.25 0"/>
<feBlend mode="normal" in2="BackgroundImageFix" result="effect1_dropShadow_3004_157"/>
<feBlend mode="normal" in="SourceGraphic" in2="effect1_dropShadow_3004_157" result="shape"/>
</filter>
</defs>
</svg>
